<?xml version="1.0" standalone="no"?><!DOCTYPE svg PUBLIC "-//W3C//DTD SVG 1.1//EN" "http://www.w3.org/Graphics/SVG/1.1/DTD/svg11.dtd" ><svg xmlns="http://www.w3.org/2000/svg"><metadata></metadata><defs><font id="iconfont" horiz-adv-x="1051"><font-face font-family="iconfont" font-weight="400" font-stretch="normal" units-per-em="1024" panose-1="2 0 5 3 0 0 0 0 0 0" ascent="896" descent="-128" x-height="0" bbox="0 -129 1052 896" underline-thickness="0" underline-position="10" unicode-range="U+e602-e6f5" /><missing-glyph horiz-adv-x="1024" d="M874 480 l-189 0 q10 34 17.5 83.5 q7.5 49.5 1.5 105.5 q-5 46 -29.5 78 q-24.5 32 -63.5 47 q-29 9 -55.5 4.5 q-26.5 -4.5 -43.5 -20.5 q-19 -20 -30.5 -54.5 q-11.5 -34.5 -20.5 -73.5 l-13 -51 q-7 -24 -16 -39 q-27 -40 -65 -59 q-38 -19 -50 -21 l-93 0 q-15 0 -23.5 -8.5 q-8.5 -8.5 -8.5 -23.5 l0 -448 q0 -15 8.5 -23.5 q8.5 -8.5 23.5 -8.5 l547 0 q94 24 141.5 198 q47.5 174 47.5 215 q-1 44 -27.5 71 q-26.5 27 -58.5 28 ZM771 35 l-515 0 l0 381 l77 0 q20 4 68 30 q48 26 82 79 q12 19 20 46.5 q8 27.5 15 58.5 q7 31 15.5 60 q8.5 29 20.5 40 q2 2 12.5 3 q10.5 1 25.5 -3 q13 -2 27.5 -17 q14.5 -15 20.5 -51 q6 -79 -11.5 -138.5 q-17.5 -59.5 -20.5 -62.5 q-2 -8 -1.5 -16.5 q0.5 -8.5 4.5 -15.5 q11 -15 26 -16 l237 0 q5 0 14.5 -9 q9.5 -9 10.5 -23 q-6 -66 -48.5 -198.5 q-42.5 -132.5 -79.5 -147.5 ZM96 480 q-15 0 -23.5 -8.5 q-8.5 -8.5 -8.5 -23.5 l0 -448 q0 -15 8.5 -23.5 q8.5 -8.5 23.5 -8.5 q15 0 23.5 8.5 q8.5 8.5 8.5 23.5 l0 448 q0 15 -8.5 23.5 q-8.5 8.5 -23.5 8.5 Z" /><glyph glyph-name="appreciate" unicode="&#xe644;" d="M874 480 l-189 0 q10 34 17.5 83.5 q7.5 49.5 1.5 105.5 q-5 46 -29.5 78 q-24.5 32 -63.5 47 q-29 9 -55.5 4.5 q-26.5 -4.5 -43.5 -20.5 q-19 -20 -30.5 -54.5 q-11.5 -34.5 -20.5 -73.5 l-13 -51 q-7 -24 -16 -39 q-27 -40 -65 -59 q-38 -19 -50 -21 l-93 0 q-15 0 -23.5 -8.5 q-8.5 -8.5 -8.5 -23.5 l0 -448 q0 -15 8.5 -23.5 q8.5 -8.5 23.5 -8.5 l547 0 q94 24 141.5 198 q47.5 174 47.5 215 q-1 44 -27.5 71 q-26.5 27 -58.5 28 ZM771 35 l-515 0 l0 381 l77 0 q20 4 68 30 q48 26 82 79 q12 19 20 46.5 q8 27.5 15 58.5 q7 31 15.5 60 q8.5 29 20.5 40 q2 2 12.5 3 q10.5 1 25.5 -3 q13 -2 27.5 -17 q14.5 -15 20.5 -51 q6 -79 -11.5 -138.5 q-17.5 -59.5 -20.5 -62.5 q-2 -8 -1.5 -16.5 q0.5 -8.5 4.5 -15.5 q11 -15 26 -16 l237 0 q5 0 14.5 -9 q9.5 -9 10.5 -23 q-6 -66 -48.5 -198.5 q-42.5 -132.5 -79.5 -147.5 ZM96 480 q-15 0 -23.5 -8.5 q-8.5 -8.5 -8.5 -23.5 l0 -448 q0 -15 8.5 -23.5 q8.5 -8.5 23.5 -8.5 q15 0 23.5 8.5 q8.5 8.5 8.5 23.5 l0 448 q0 15 -8.5 23.5 q-8.5 8.5 -23.5 8.5 Z" /><glyph glyph-name="roundcheckfill" unicode="&#xe659;" d="M512 830 q-189 -5 -315 -131 q-126 -126 -131 -315 q5 -189 131 -315 q126 -126 315 -131 q189 5 315 131 q126 126 131 315 q-5 189 -131 315 q-126 126 -315 131 ZM727 458 l-256 -259 l0 -1 q-4 -3 -7 -4 l-4 -3 q-6 -2 -12 -2 q-6 0 -12 2 l-3 3 q-4 2 -7 4 l-127 130 q-9 10 -9 23 q0 13 10 22.5 q10 9.5 22.5 9 q12.5 -0.5 22.5 -9.5 l103 -106 l234 236 q10 9 22.5 9 q12.5 0 22 -9.5 q9.5 -9.5 10 -22.5 q0.5 -13 -9.5 -22 Z" /><glyph glyph-name="time" unicode="&#xe669;" d="M512 832 q-190 -5 -316.5 -131.5 q-126.5 -126.5 -131.5 -316.5 q5 -190 131.5 -316.5 q126.5 -126.5 316.5 -131.5 q190 5 316.5 131.5 q126.5 126.5 131.5 316.5 q-5 190 -131.5 316.5 q-126.5 126.5 -316.5 131.5 ZM512 0 q-163 4 -271.5 112.5 q-108.5 108.5 -112.5 271.5 q4 163 112.5 271.5 q108.5 108.5 271.5 112.5 q163 -4 271.5 -112.5 q108.5 -108.5 112.5 -271.5 q-4 -163 -112.5 -271.5 q-108.5 -108.5 -271.5 -112.5 ZM672 384 l-160 0 l0 224 q0 14 -9 23 q-9 9 -23 9 q-14 0 -23 -9 q-9 -9 -9 -23 l0 -256 q0 -14 9 -23 q9 -9 23 -9 l192 0 q14 0 23 9 q9 9 9 23 q0 14 -9 23 q-9 9 -23 9 Z" /><glyph glyph-name="deliver" unicode="&#xe671;" d="M352 320 l-128 0 q-14 0 -23 9 q-9 9 -9 23 q0 14 9 23 q9 9 23 9 l96 0 l0 96 q0 14 9 23 q9 9 23 9 q14 0 23 -9 q9 -9 9 -23 l0 -128 q0 -14 -9 -23 q-9 -9 -23 -9 ZM702 229 q-47 -1 -81.5 -29 q-34.5 -28 -45.5 -72 l-124 0 q-11 44 -45.5 72 q-34.5 28 -81.5 29 q-56 -1 -93 -38 q-37 -37 -38 -93 q1 -56 38 -93 q37 -37 93 -38 q46 1 80 27.5 q34 26.5 46 69.5 l126 0 q12 -43 46 -69.5 q34 -26.5 80 -27.5 q56 1 93 38 q37 37 38 93 q-1 56 -38 93 q-37 37 -93 38 ZM324 31 q-29 1 -48 20 q-19 19 -19 47.5 q0 28.5 19 47.5 q19 19 47.5 19 q28.5 0 47.5 -19 q19 -19 19 -47.5 q0 -28.5 -19 -47.5 q-19 -19 -47 -20 ZM702 31 q-28 1 -47 20 q-19 19 -19 47.5 q0 28.5 19 47 q19 18.5 47.5 18.5 q28.5 0 47 -18.5 q18.5 -18.5 18.5 -47 q0 -28.5 -18.5 -47.5 q-18.5 -19 -47.5 -20 ZM864 800 l-464 0 q-34 -1 -56.5 -23.5 q-22.5 -22.5 -23.5 -56.5 l0 -92 l-195 -98 l-4 -2 q-27 -20 -41.5 -48.5 q-14.5 -28.5 -14.5 -63.5 l0 -322 q1 -14 10 -23 q9 -9 22.5 -9 q13.5 0 22.5 9 q9 9 9 23 l0 322 q0 38 27 58 l210 105 l4 3 q3 2 5 4 l4 5 q2 3 3 6 q1 3 1 6 l1 5 l0 112 q0 7 4.5 11.5 q4.5 4.5 11.5 4.5 l464 0 q14 0 23 -9.5 q9 -9.5 9 -23.5 l0 -607 q0 -14 9 -23 q9 -9 23 -9 q14 0 23 9 q9 9 9 23 l0 607 q-1 41 -28 68.5 q-27 27.5 -68 28.5 Z" /><glyph glyph-name="pay" unicode="&#xe673;" d="M799 -4 l-639 0 q-41 1 -68 28 q-27 27 -28 68 l0 578 q1 41 28 68 q27 27 68 28 l642 0 q41 -1 68 -28 q27 -27 28 -68 l0 -94 q0 -14 -9 -23 q-9 -9 -22.5 -9 q-13.5 0 -22.5 9 q-9 9 -10 23 l0 94 q0 14 -9 23 q-9 9 -23 9 l-642 0 q-14 0 -23 -9 q-9 -9 -9 -23 l0 -578 q0 -14 9 -23 q9 -9 23 -9 l639 0 q14 0 23 9 q9 9 9 23 l0 98 q1 14 10 23 q9 9 22.5 9 q13.5 0 22.5 -9 q9 -9 9 -23 l0 -98 q-1 -41 -28 -68 q-27 -27 -68 -28 ZM661 382 l0 0 ZM630 382 q0 13 9 22 q9 9 22.5 9 q13.5 0 22 -9 q8.5 -9 8.5 -22 q0 -13 -8.5 -22 q-8.5 -9 -22 -9 q-13.5 0 -22.5 9 q-9 9 -9 22 ZM896 256 l-320 0 q-27 1 -45 19 q-18 18 -19 45 l0 128 q1 27 19 45 q18 18 45 19 l320 0 q27 -1 45 -19 q18 -18 19 -45 l0 -128 q-1 -27 -19 -45 q-18 -18 -45 -19 ZM576 448 l0 -128 l320 0 l0 128 l-320 0 Z" /><glyph glyph-name="send" unicode="&#xe675;" d="M287 384 l-62 0 q-14 0 -23 9 q-9 9 -9 23 q0 14 9 23 q9 9 23 9 l62 0 q14 0 23 -9 q9 -9 9 -23 q0 -14 -9 -23 q-9 -9 -23 -9 ZM883 768 l-742 0 q-32 -1 -54 -23 q-22 -22 -23 -54 l0 -621 q1 -30 21 -49.5 q20 -19.5 50 -20.5 l754 0 q30 1 50 20.5 q20 19.5 21 49.5 l0 621 q-1 32 -23 54 q-22 22 -54 23 ZM896 691 l0 -131 l-223 0 l0 144 l210 0 q5 0 9 -4 q4 -4 4 -9 ZM447 704 l162 0 l0 -360 l-71 28 q-12 4 -24 0 l-67 -28 l0 360 ZM128 691 q0 5 4 9 q4 4 9 4 l242 0 l0 -144 l-255 0 l0 131 ZM889 64 l-754 0 q-7 1 -7 6 l0 426 l255 0 l0 -200 q0 -16 14 -26 q8 -6 18 -6 q6 0 12 3 l99 40 l103 -40 q15 -6 29 3.5 q14 9.5 15 25.5 l0 200 l223 0 l0 -426 q0 -5 -7 -6 Z" /><glyph glyph-name="ticket" unicode="&#xe677;" d="M430 -61 q-35 0 -60 25 l-68 70 q-9 10 -9 23 q0 13 10 23 q22 21 22 52 q0 31 -21.5 53 q-21.5 22 -52 22 q-30.5 0 -52.5 -21 q-11 -9 -23.5 -8.5 q-12.5 0.5 -22.5 9.5 l-68 70 q-23 25 -23 59.5 q0 34.5 25 58.5 l443 435 q26 23 60 23 q34 0 59 -24 l68 -71 q9 -10 8.5 -22.5 q-0.5 -12.5 -9.5 -22.5 q-22 -22 -22 -52.5 q0 -30.5 21.5 -52.5 q21.5 -22 52 -22.5 q30.5 -0.5 52.5 20.5 q10 9 23 9 q13 0 23 -9 l68 -70 q23 -25 23 -59.5 q0 -34.5 -25 -59.5 l-443 -434 q-25 -24 -59 -24 ZM368 59 l48 -50 q6 -6 14 -6 q8 0 14 6 l443 434 q6 6 6 14 q0 8 -5 14 l-49 50 q-32 -20 -71 -20 q-28 0 -53.5 11 q-25.5 11 -45.5 31 q-20 20 -30 45 q-10 25 -9 53 q0 40 21 73 l-48 50 q-6 5 -14 5.5 q-8 0.5 -14 -5.5 l-444 -434 q-5 -6 -5.5 -14 q-0.5 -8 5.5 -14 l48 -50 q33 19 72 20 q28 -1 53.5 -11.5 q25.5 -10.5 45 -30.5 q19.5 -20 30 -45.5 q10.5 -25.5 9.5 -53.5 q0 -39 -21 -72 ZM354 313 q-13 0 -22.5 9.5 q-9.5 9.5 -9.5 22.5 q0 13 10 22 l178 179 q10 9 23 9 q13 0 22.5 -9.5 q9.5 -9.5 9.5 -22 q0 -12.5 -9 -22.5 l-179 -179 q-10 -9 -23 -9 ZM450 217 q-13 0 -22.5 9.5 q-9.5 9.5 -9.5 22.5 q0 13 9 23 l179 178 q10 10 22.5 10 q12.5 0 22 -9.5 q9.5 -9.5 9.5 -22.5 q0 -13 -9 -23 l-179 -178 q-9 -10 -22 -10 Z" /><glyph glyph-name="list" unicode="&#xe682;" d="M896 640 l-288 0 q-14 0 -23 9 q-9 9 -9 23 q0 14 9 23 q9 9 23 9 l288 0 q14 0 23 -9 q9 -9 9 -23 q0 -14 -9 -23 q-9 -9 -23 -9 ZM896 480 l-288 0 q-14 0 -23 9 q-9 9 -9 23 q0 14 9 23 q9 9 23 9 l288 0 q14 0 23 -9 q9 -9 9 -23 q0 -14 -9 -23 q-9 -9 -23 -9 ZM896 224 l-288 0 q-14 0 -23 9 q-9 9 -9 23 q0 14 9 23 q9 9 23 9 l288 0 q14 0 23 -9 q9 -9 9 -23 q0 -14 -9 -23 q-9 -9 -23 -9 ZM896 64 l-288 0 q-14 0 -23 9 q-9 9 -9 23 q0 14 9 23 q9 9 23 9 l288 0 q14 0 23 -9 q9 -9 9 -23 q0 -14 -9 -23 q-9 -9 -23 -9 ZM384 416 l-192 0 q-41 1 -68 28 q-27 27 -28 68 l0 192 q1 41 28 68 q27 27 68 28 l192 0 q41 -1 68 -28 q27 -27 28 -68 l0 -192 q-1 -41 -28 -68 q-27 -27 -68 -28 ZM192 736 q-14 0 -23 -9 q-9 -9 -9 -23 l0 -192 q0 -14 9 -23 q9 -9 23 -9 l192 0 q14 0 23 9 q9 9 9 23 l0 192 q0 14 -9 23 q-9 9 -23 9 l-192 0 ZM384 -32 l-192 0 q-41 1 -68 28 q-27 27 -28 68 l0 192 q1 41 28 68 q27 27 68 28 l192 0 q41 -1 68 -28 q27 -27 28 -68 l0 -192 q-1 -41 -28 -68 q-27 -27 -68 -28 ZM192 288 q-14 0 -23 -9 q-9 -9 -9 -23 l0 -192 q0 -14 9 -23 q9 -9 23 -9 l192 0 q14 0 23 9 q9 9 9 23 l0 192 q0 14 -9 23 q-9 9 -23 9 l-192 0 Z" /><glyph glyph-name="questionfill" unicode="&#xe690;" d="M512 832 q-190 -5 -316.5 -131.5 q-126.5 -126.5 -131.5 -316.5 q5 -190 131.5 -316.5 q126.5 -126.5 316.5 -131.5 q190 5 316.5 131.5 q126.5 126.5 131.5 316.5 q-5 190 -131.5 316.5 q-126.5 126.5 -316.5 131.5 ZM512 64 q-20 0 -33.5 13.5 q-13.5 13.5 -13.5 34 q0 20.5 13.5 34 q13.5 13.5 33.5 13.5 q20 0 33.5 -13.5 q13.5 -13.5 13.5 -34 q0 -20.5 -13.5 -34 q-13.5 -13.5 -33.5 -13.5 ZM601 391 q-22 -21 -39 -42 q-17 -21 -18 -41 l0 -54 q0 -13 -9 -22 q-9 -9 -23 -9 q-14 0 -23 9 q-9 9 -9 22 l0 54 q1 39 24 70.5 q23 31.5 51 57.5 q21 20 36.5 39 q15.5 19 16.5 35 q-1 41 -28 68.5 q-27 27.5 -68 27.5 q-41 0 -68 -26.5 q-27 -26.5 -28 -67.5 q0 -13 -9 -22 q-9 -9 -23 -9 q-14 0 -23 9 q-9 9 -9 22 q2 68 47 112.5 q45 44.5 113 46.5 q68 -2 113 -47.5 q45 -45.5 47 -113.5 q-1 -35 -22.5 -64 q-21.5 -29 -48.5 -55 Z" /><glyph glyph-name="question" unicode="&#xe691;" d="M512 112 l0 0 ZM464 112 q1 20 14.5 33.5 q13.5 13.5 33.5 13.5 q20 0 33.5 -13.5 q13.5 -13.5 13.5 -34 q0 -20.5 -13.5 -34 q-13.5 -13.5 -33.5 -13.5 q-20 0 -33.5 13.5 q-13.5 13.5 -14.5 34.5 ZM512 -64 q-190 5 -316.5 131.5 q-126.5 126.5 -131.5 316.5 q5 190 131.5 316.5 q126.5 126.5 316.5 131.5 q190 -5 316.5 -131.5 q126.5 -126.5 131.5 -316.5 q-5 -190 -131.5 -316.5 q-126.5 -126.5 -316.5 -131.5 ZM512 768 q-163 -4 -271.5 -112.5 q-108.5 -108.5 -112.5 -271.5 q4 -163 112.5 -271.5 q108.5 -108.5 271.5 -112.5 q163 4 271.5 112.5 q108.5 108.5 112.5 271.5 q-4 163 -112.5 271.5 q-108.5 108.5 -271.5 112.5 ZM512 222 q-14 1 -23 10 q-9 9 -9 22 l0 54 q1 39 24 70.5 q23 31.5 51 57.5 q21 20 36.5 39 q15.5 19 16.5 35 q-1 41 -28 68.5 q-27 27.5 -68 27.5 q-41 0 -68 -26.5 q-27 -26.5 -28 -67.5 q0 -13 -9 -22 q-9 -9 -23 -9 q-14 0 -23 9 q-9 9 -9 22 q2 68 47 112.5 q45 44.5 113 46.5 q68 -2 113 -47.5 q45 -45.5 47 -113.5 q-1 -36 -22.5 -64.5 q-21.5 -28.5 -48.5 -54.5 q-22 -21 -39 -42 q-17 -21 -18 -41 l0 -54 q0 -13 -9 -22 q-9 -9 -23 -10 Z" /><glyph glyph-name="pic" unicode="&#xe69b;" d="M320 512 l0 0 ZM256 512 q1 27 19 45 q18 18 45 18 q27 0 45 -18 q18 -18 18 -45 q0 -27 -18 -45 q-18 -18 -45 -18 q-27 0 -45 18 q-18 18 -19 45 ZM843 0 l-662 0 q-49 1 -82.5 34.5 q-33.5 33.5 -34.5 82.5 l0 534 q1 49 34.5 82.5 q33.5 33.5 82.5 34.5 l662 0 q49 -1 82.5 -34.5 q33.5 -33.5 34.5 -82.5 l0 -534 q-1 -49 -34.5 -82.5 q-33.5 -33.5 -82.5 -34.5 ZM181 704 q-22 -1 -37 -16 q-15 -15 -16 -37 l0 -534 q1 -22 16 -37 q15 -15 37 -16 l662 0 q22 1 37 16 q15 15 16 37 l0 534 q-1 22 -16 37 q-15 15 -37 16 l-662 0 ZM224 127 q-5 0 -10 1 q-12 5 -18 16 q-6 11 -3 24 q2 17 47 96 q45 79 137 88 q26 -1 48.5 -6 q22.5 -5 43.5 -12 q27 -9 53 -13.5 q26 -4.5 57 -0.5 q15 2 24 19 q9 17 19 51 q12 50 47.5 99.5 q35.5 49.5 127.5 53.5 q14 0 23 -9.5 q9 -9.5 9 -23 q0 -13.5 -9 -22.5 q-9 -9 -23 -9 q-55 -1 -77.5 -29 q-22.5 -28 -36.5 -79 q-9 -37 -29 -71 q-20 -34 -65 -43 q-42 -6 -76 0 q-34 6 -62 16 q-19 6 -37.5 10 q-18.5 4 -38.5 5 l-1 0 q-47 -5 -78.5 -54.5 q-31.5 -49.5 -41.5 -83.5 q-3 -11 -11.5 -17 q-8.5 -6 -18.5 -6 Z" /><glyph glyph-name="weibo" unicode="&#xe6c4;" d="M729 399 q-10 2 -18.5 6.5 q-8.5 4.5 -4.5 16.5 q11 27 11.5 52.5 q0.5 25.5 -10.5 42.5 q-23 30 -72.5 25.5 q-49.5 -4.5 -117.5 -32.5 q-2 -2 -13 -4 q-11 -2 -8 13 q11 34 8.5 60 q-2.5 26 -18.5 43 q-39 35 -121 3.5 q-82 -31.5 -169 -115.5 q-63 -63 -97.5 -126 q-34.5 -63 -34.5 -120 q6 -109 117 -170 q111 -61 254 -62 q183 5 288.5 83 q105.5 78 107.5 165 q-2 50 -32 79 q-30 29 -70 40 ZM436 83 q-113 -9 -193 32.5 q-80 41.5 -90 114.5 q-4 73 66 129 q70 56 182 69 q113 9 193 -32.5 q80 -41.5 90 -114.5 q4 -73 -66 -129 q-70 -56 -182 -69 ZM898 661 q-47 47 -107.5 64.5 q-60.5 17.5 -123.5 5.5 l0 0 q-14 -3 -22 -14 q-8 -11 -4.5 -25 q3.5 -14 15 -21 q11.5 -7 26.5 -4 q44 8 87.5 -4.5 q43.5 -12.5 76 -46 q32.5 -33.5 41 -75.5 q8.5 -42 -4.5 -82 l0 0 q-5 -14 1.5 -25.5 q6.5 -11.5 20.5 -15.5 q14 -4 26.5 1.5 q12.5 5.5 17.5 19.5 l0 0 q20 57 7.5 115.5 q-12.5 58.5 -57.5 106.5 ZM808 579 q-22 23 -51.5 32 q-29.5 9 -60.5 3 q-12 -3 -18.5 -13 q-6.5 -10 -4 -22 q2.5 -12 12.5 -18 q10 -6 23 -4 l0 0 q15 3 29.5 -1.5 q14.5 -4.5 25 -16 q10.5 -11.5 13.5 -25.5 q3 -14 -2 -28 l0 0 q-3 -12 2.5 -22.5 q5.5 -10.5 17.5 -14 q12 -3.5 22.5 1.5 q10.5 5 14.5 17 q10 28 4 57.5 q-6 29.5 -28 53.5 ZM485 392 q-56 13 -107.5 -9 q-51.5 -22 -76.5 -70 q-23 -49 -3.5 -93 q19.5 -44 74.5 -63 q59 -17 114 6 q55 23 81 75 q22 51 -1.5 94.5 q-23.5 43.5 -80.5 59.5 ZM430 233 q-12 -17 -31.5 -23 q-19.5 -6 -37.5 2 q-18 8 -22.5 24.5 q-4.5 16.5 7 33 q11.5 16.5 30.5 22.5 q19 6 37 -1 q18 -7 23 -23.5 q5 -16.5 -6 -34.5 ZM478 293 q-4 -7 -11.5 -9.5 q-7.5 -2.5 -14.5 0 q-7 2.5 -8.5 9 q-1.5 6.5 2.5 13 q4 6.5 11 9 q7 2.5 14 0 q7 -2.5 9 -9 q2 -6.5 -2 -12.5 Z" /><glyph glyph-name="round" unicode="&#xe6d7;" d="M512 -64 q-190 5 -316.5 131.5 q-126.5 126.5 -131.5 316.5 q5 190 131.5 316.5 q126.5 126.5 316.5 131.5 q190 -5 316.5 -131.5 q126.5 -126.5 131.5 -316.5 q-5 -190 -131.5 -316.5 q-126.5 -126.5 -316.5 -131.5 ZM512 768 q-163 -4 -271.5 -112.5 q-108.5 -108.5 -112.5 -271.5 q4 -163 112.5 -271.5 q108.5 -108.5 271.5 -112.5 q163 4 271.5 112.5 q108.5 108.5 112.5 271.5 q-4 163 -112.5 271.5 q-108.5 108.5 -271.5 112.5 Z" /><glyph glyph-name="roundaddfill" unicode="&#xe6d8;" d="M829 699 q-64 64 -145.5 97.5 q-81.5 33.5 -171.5 33.5 q-90 0 -171.5 -33.5 q-81.5 -33.5 -145 -97 q-63.5 -63.5 -97.5 -144.5 q-34 -81 -34 -171 q0 -90 34 -171 q34 -81 97.5 -144.5 q63.5 -63.5 145 -97 q81.5 -33.5 171.5 -33.5 q90 0 171.5 33.5 q81.5 33.5 145 97 q63.5 63.5 97.5 144.5 q34 81 34 171 q0 90 -34 171 q-34 81 -97 144 ZM736 352 l-192 0 l0 -192 q0 -14 -9 -23 q-9 -9 -23 -9 q-14 0 -23 9 q-9 9 -9 23 l0 192 l-192 0 q-14 0 -23 9 q-9 9 -9 23 q0 14 9 23 q9 9 23 9 l192 0 l0 192 q0 14 9 23 q9 9 23 9 q14 0 23 -9 q9 -9 9 -23 l0 -192 l192 0 q14 0 23 -9 q9 -9 9 -23 q0 -14 -9 -23 q-9 -9 -23 -9 Z" /><glyph glyph-name="roundadd" unicode="&#xe6d9;" d="M512 -62 q-90 0 -171.5 33.5 q-81.5 33.5 -145 97 q-63.5 63.5 -97.5 144.5 q-34 81 -34 171 q0 90 34 171 q34 81 97.5 144.5 q63.5 63.5 145 97 q81.5 33.5 171.5 33.5 q90 0 171.5 -33.5 q81.5 -33.5 145 -97 q63.5 -63.5 97.5 -144.5 q34 -81 34 -171 q0 -90 -34 -171 q-34 -81 -97.5 -144.5 q-63.5 -63.5 -145 -97 q-81.5 -33.5 -171.5 -33.5 ZM512 766 q-78 0 -147.5 -29 q-69.5 -29 -124 -83.5 q-54.5 -54.5 -83.5 -123.5 q-29 -69 -29 -146 q0 -77 29 -146 q29 -69 83.5 -123.5 q54.5 -54.5 124 -83.5 q69.5 -29 147 -29 q77.5 0 147.5 29 q70 29 124.5 83.5 q54.5 54.5 83.5 123.5 q29 69 29 146 q0 77 -29 146 q-29 69 -83.5 123.5 q-54.5 54.5 -124 83.5 q-69.5 29 -147.5 29 ZM736 416 l-192 0 l0 192 q0 14 -9 23 q-9 9 -23 9 q-14 0 -23 -9 q-9 -9 -9 -23 l0 -192 l-192 0 q-14 0 -23 -9 q-9 -9 -9 -23 q0 -14 9 -23 q9 -9 23 -9 l192 0 l0 -192 q0 -14 9 -23 q9 -9 23 -9 q14 0 23 9 q9 9 9 23 l0 192 l192 0 q14 0 23 9 q9 9 9 23 q0 14 -9 23 q-9 9 -23 9 Z" /><glyph glyph-name="add" unicode="&#xe6da;" d="M800 416 l-256 0 l0 256 q0 14 -9 23 q-9 9 -23 9 q-14 0 -23 -9 q-9 -9 -9 -23 l0 -256 l-256 0 q-14 0 -23 -9 q-9 -9 -9 -23 q0 -14 9 -23 q9 -9 23 -9 l256 0 l0 -256 q0 -14 9 -23 q9 -9 23 -9 q14 0 23 9 q9 9 9 23 l0 256 l256 0 q14 0 23 9 q9 9 9 23 q0 14 -9 23 q-9 9 -23 9 Z" /><glyph glyph-name="share" unicode="&#xe6f3;" d="M769 192 q-27 0 -50.5 -10 q-23.5 -10 -40.5 -28 l-310 172 q15 26 15 58 q0 19 -6 36 l305 189 q17 -15 38.5 -24 q21.5 -9 46.5 -9 q54 1 90.5 37.5 q36.5 36.5 37.5 90.5 q-1 54 -37.5 90.5 q-36.5 36.5 -90.5 37.5 q-54 -1 -90 -37.5 q-36 -36.5 -38 -90.5 q1 -22 8 -41 l-302 -188 q-18 17 -41 27 q-23 10 -49 10 q-54 -1 -90.5 -37.5 q-36.5 -36.5 -37.5 -90.5 q1 -54 37.5 -90.5 q36.5 -36.5 90.5 -37.5 q39 1 70 21 l321 -179 q-5 -16 -5 -34 q1 -54 37 -90 q36 -36 91 -38 q54 2 90 38 q36 36 38 90 q-2 55 -38 91 q-36 36 -90 37 ZM767 768 q27 -1 45.5 -19 q18.5 -18 18.5 -45 q0 -27 -18.5 -45 q-18.5 -18 -45.5 -18 q-27 0 -45 18 q-18 18 -18 45 q0 27 18 45 q18 18 45 19 ZM191 384 q1 27 19 45 q18 18 45 18 q27 0 45 -18 q18 -18 18 -45 q0 -27 -18 -45 q-18 -18 -45 -18 q-27 0 -45 18 q-18 18 -19 45 ZM769 0 q-27 1 -45.5 19 q-18.5 18 -18.5 45.5 q0 27.5 18.5 45.5 q18.5 18 45.5 18 q27 0 45 -18 q18 -18 18 -45.5 q0 -27.5 -18 -45.5 q-18 -18 -45 -19 Z" /><glyph glyph-name="viewgallery" unicode="&#xe6b4;" d="M147 846 l202 0 q32 -1 53 -22 q21 -21 22 -53 l0 -224 q-1 -32 -22 -53.5 q-21 -21.5 -53 -22.5 l-202 0 q-32 1 -53.5 22.5 q-21.5 21.5 -21.5 53.5 l0 224 q0 32 21.5 53 q21.5 21 53.5 22 ZM21 547 q2 -54 37.5 -89 q35.5 -35 88.5 -37 l202 0 q53 2 88.5 37 q35.5 35 36.5 89 l0 224 q-1 53 -36.5 88.5 q-35.5 35.5 -88.5 36.5 l-202 0 q-53 -1 -88.5 -36.5 q-35.5 -35.5 -37.5 -88.5 l0 -224 ZM675 846 l202 0 q32 -1 53.5 -22 q21.5 -21 21.5 -53 l0 -224 q0 -32 -21.5 -53.5 q-21.5 -21.5 -53.5 -22.5 l-202 0 q-32 1 -53 22.5 q-21 21.5 -22 53.5 l0 224 q1 32 22 53 q21 21 53 22 ZM550 547 q1 -54 36.5 -89 q35.5 -35 88.5 -37 l202 0 q53 2 88.5 37 q35.5 35 37.5 89 l0 224 q-2 53 -37.5 88.5 q-35.5 35.5 -88.5 36.5 l-202 0 q-53 -1 -88.5 -36.5 q-35.5 -35.5 -36.5 -88.5 l0 -224 ZM147 297 l202 0 q32 -1 53 -22.5 q21 -21.5 22 -53.5 l0 -224 q-1 -32 -22 -53 q-21 -21 -53 -22 l-202 0 q-32 1 -53.5 22 q-21.5 21 -21.5 53 l0 224 q0 32 21.5 53.5 q21.5 21.5 53.5 22.5 ZM21 -3 q2 -53 37.5 -88.5 q35.5 -35.5 88.5 -36.5 l202 0 q53 1 88.5 36.5 q35.5 35.5 36.5 88.5 l0 224 q-1 54 -36.5 89 q-35.5 35 -88.5 37 l-202 0 q-53 -2 -88.5 -37 q-35.5 -35 -37.5 -89 l0 -224 ZM875 -78 l-7 0 l-193 0 q-32 1 -53 22 q-21 21 -22 53 l0 224 q1 32 22 53.5 q21 21.5 53 22.5 l202 0 q32 -1 53.5 -22 q21.5 -21 21.5 -53 l0 -225 q1 -11 8 -18 q7 -7 17.5 -7 q10.5 0 17.5 7 q7 7 8 18 l0 225 q-2 53 -37.5 88 q-35.5 35 -88.5 37 l-202 0 q-53 -2 -88.5 -37 q-35.5 -35 -36.5 -89 l0 -224 q1 -53 36.5 -88.5 q35.5 -35.5 88.5 -36.5 l201 0 q11 0 18.5 7 q7.5 7 7.5 18 q0 11 -7 18 q-7 7 -18 7 l-2 0 Z" /><glyph glyph-name="gouwuche" unicode="&#xe63f;" d="M246 -16 q1 29 20 47.5 q19 18.5 47.5 18.5 q28.5 0 47.5 -18.5 q19 -18.5 19 -47.5 q0 -29 -19 -47.5 q-19 -18.5 -47.5 -18.5 q-28.5 0 -47.5 18.5 q-19 18.5 -20 47.5 ZM717 -16 q1 29 19.5 47.5 q18.5 18.5 47.5 18.5 q29 0 47.5 -18.5 q18.5 -18.5 18.5 -47.5 q0 -29 -18.5 -47.5 q-18.5 -18.5 -47.5 -18.5 q-29 0 -47.5 18.5 q-18.5 18.5 -19.5 47.5 ZM906 131 l-538 0 q-22 1 -40 16.5 q-18 15.5 -24 38.5 l-96 566 q-8 42 -40.5 68.5 q-32.5 26.5 -74.5 27.5 l-23 0 q-10 0 -17.5 -8 q-7.5 -8 -7.5 -18 q0 -10 7.5 -17.5 q7.5 -7.5 17.5 -7.5 l23 0 q22 -1 40 -16.5 q18 -15.5 24 -38.5 l96 -566 q8 -42 40.5 -68.5 q32.5 -26.5 74.5 -27.5 l538 0 q10 0 17.5 8 q7.5 8 7.5 18 q0 10 -6.5 17.5 q-6.5 7.5 -18.5 7.5 ZM880 717 l-573 0 q-10 -1 -17.5 -8.5 q-7.5 -7.5 -7.5 -17.5 q0 -10 7.5 -17.5 q7.5 -7.5 17.5 -7.5 l573 0 q19 -1 28 -12 q9 -11 4 -30 l-70 -282 q-6 -24 -27.5 -41 q-21.5 -17 -46.5 -19 l-397 -29 q-10 -1 -17 -9 q-7 -8 -5 -20 q0 -10 8 -17 q8 -7 21 -5 l396 28 q42 4 75 32 q33 28 44 68 l70 281 q9 43 -15 73.5 q-24 30.5 -68 32.5 Z" /><glyph glyph-name="shouji" unicode="&#xe6d5;" d="M737 830 l-450 0 q-23 -1 -38 -16 q-15 -15 -16 -38 l0 -786 q1 -23 16 -38.5 q15 -15.5 38 -15.5 l450 0 q23 0 38.5 15.5 q15.5 15.5 15.5 38.5 l0 786 q0 23 -15.5 38 q-15.5 15 -38.5 16 l0 0 ZM462 762 l100 0 q6 0 10.5 -4 q4.5 -4 4.5 -10 q0 -6 -4.5 -10 q-4.5 -4 -10.5 -4 l-100 0 q-6 0 -10 4 q-4 4 -4 10 q0 6 4 10 q4 4 10 4 l0 0 ZM512 -22 q-19 1 -31.5 13.5 q-12.5 12.5 -12.5 31.5 q0 19 12.5 31.5 q12.5 12.5 31.5 12.5 q19 0 31.5 -12.5 q12.5 -12.5 12.5 -31.5 q0 -19 -12.5 -31.5 q-12.5 -12.5 -31.5 -13.5 l0 0 ZM739 104 l-453 0 l0 582 l453 0 l0 -582 ZM739 104 l0 0 Z" /><glyph glyph-name="cuowu" unicode="&#xe641;" d="M547 384 l416 416 q7 8 7 18 q0 10 -7 17 q-7 7 -17 7 q-10 0 -18 -7 l-416 -416 l-416 416 q-8 7 -18 7 q-10 0 -17 -7 q-7 -7 -7 -17 q0 -10 7 -18 l416 -416 l-416 -416 q-7 -8 -7 -18 q0 -10 7 -17 q7 -7 17 -7 q10 0 18 7 l416 416 l416 -416 q8 -7 18 -7 q10 0 17 7 q7 7 7 17 q0 10 -7 18 l-416 416 Z" /><glyph glyph-name="erweima" unicode="&#xe642;" d="M384 832 l-250 0 q-39 -1 -63.5 -27 q-24.5 -26 -25.5 -63 l0 -227 q1 -39 26.5 -64 q25.5 -25 62.5 -25 l250 0 q39 1 64 26.5 q25 25.5 26 62.5 l0 227 q-1 37 -26 63 q-25 26 -64 27 ZM429 515 q-1 -19 -13 -31.5 q-12 -12.5 -32 -13.5 l-250 0 q-19 1 -31.5 13.5 q-12.5 12.5 -12.5 31.5 l0 227 q0 20 12.5 32.5 q12.5 12.5 31.5 12.5 l250 0 q20 0 32 -12.5 q12 -12.5 13 -32.5 l0 -227 ZM192 704 l134 0 l0 -134 l-134 0 l0 134 ZM378 352 l-244 0 q-36 -1 -60.5 -25.5 q-24.5 -24.5 -25.5 -64.5 l0 -220 q1 -38 25.5 -63.5 q24.5 -25.5 60.5 -26.5 l244 0 q37 1 61 25.5 q24 24.5 25 64.5 l0 220 q1 40 -24 64.5 q-25 24.5 -62 25.5 ZM422 45 q0 -20 -12.5 -32.5 q-12.5 -12.5 -31.5 -12.5 l-244 0 q-19 0 -31.5 12.5 q-12.5 12.5 -12.5 32.5 l0 221 q0 19 12.5 31.5 q12.5 12.5 31.5 12.5 l244 0 q19 0 31.5 -12.5 q12.5 -12.5 12.5 -31.5 l0 -221 ZM192 227 l131 0 l0 -131 l-131 0 l0 131 ZM634 426 l249 0 q39 1 64 26.5 q25 25.5 26 62.5 l0 227 q-1 40 -27 64.5 q-26 24.5 -63 25.5 l-249 0 q-40 -1 -64.5 -26.5 q-24.5 -25.5 -25.5 -63.5 l0 -227 q1 -39 27 -64 q26 -25 63 -25 ZM589 742 q0 20 12.5 32.5 q12.5 12.5 32.5 12.5 l249 0 q20 0 32.5 -12.5 q12.5 -12.5 12.5 -32.5 l0 -227 q0 -19 -12.5 -31.5 q-12.5 -12.5 -32.5 -13.5 l-249 0 q-20 1 -32.5 13.5 q-12.5 12.5 -12.5 31.5 l0 227 ZM701 704 l134 0 l0 -134 l-134 0 l0 134 ZM573 179 l137 0 q10 0 16.5 6.5 q6.5 6.5 6.5 16.5 l0 137 q0 10 -6.5 16 q-6.5 6 -16.5 7 l-137 0 q-10 -1 -16 -7 q-6 -6 -7 -16 l0 -137 q1 -10 7 -16.5 q6 -6.5 16 -6.5 ZM886 333 l0 -39 q1 -10 8.5 -17.5 q7.5 -7.5 17.5 -7.5 l38 0 q10 0 18 7.5 q8 7.5 8 17.5 l0 39 q0 10 -8 17.5 q-8 7.5 -18 7.5 l-38 0 q-10 0 -17.5 -6.5 q-7.5 -6.5 -8.5 -18.5 ZM582 -48 l48 0 q10 0 16.5 6.5 q6.5 6.5 6.5 15.5 l0 48 q0 10 -6.5 16.5 q-6.5 6.5 -16.5 6.5 l-48 0 q-9 0 -15.5 -6.5 q-6.5 -6.5 -6.5 -16.5 l0 -48 q0 -9 6.5 -15.5 q6.5 -6.5 15.5 -6.5 ZM944 192 l-99 0 q-13 0 -21 -8.5 q-8 -8.5 -8 -20.5 l0 -45 l-48 0 q-15 0 -23.5 -8.5 q-8.5 -8.5 -8.5 -23.5 l0 -99 q0 -12 8 -20 q8 -8 21 -9 l179 -3 q12 0 20 8.5 q8 8.5 9 20.5 l0 179 q-1 12 -9 20.5 q-8 8.5 -20 8.5 Z" /><glyph glyph-name="jushoucang" unicode="&#xe643;" d="M909 682 q-15 18 -29 32 q-84 85 -171 84.5 q-87 -0.5 -171 -68.5 q-15 -11 -29 -26 q-7 7 -14.5 13 q-7.5 6 -14.5 13 q-84 66 -171 67 q-87 1 -171 -83 q-16 -14 -26 -32 q-98 -147 -56 -288.5 q42 -141.5 194 -271.5 q66 -59 137 -103 q25 -14 45 -29 l11 -7 q4 -2 8 -2 q3 -2 5 -3 l8 -4 q3 -2 7 -3 q4 -1 9 -3 q20 -5 45 -2 q25 3 45 15 q5 0 16 9 q20 10 44 29 q72 44 138 103 q154 132 196.5 273.5 q42.5 141.5 -55.5 286.5 ZM736 163 q-31 -26 -64 -51.5 q-33 -25.5 -67 -47.5 l-23 -14 q-10 -7 -21 -11.5 q-11 -4.5 -17 -9.5 q-10 -5 -26 -10 l-25 0 q-4 0 -3.5 0 q0.5 0 0.5 0 q0 0 0 0 l-2 1 q-1 0 -2 2 q-2 1 -4.5 2 q-2.5 1 -4.5 2 q-6 4 -16 9 q-20 11 -45 26 q-68 42 -131 99 q-137 120 -175.5 242.5 q-38.5 122.5 44.5 247.5 q5 7 11 12.5 q6 5.5 11 12.5 q67 71 136 70.5 q69 -0.5 139 -57.5 q14 -10 23 -19 q0 0 0 0 l35 -39 q0 0 0 0 l16 16 q18 20 41 39 q70 56 139 57 q69 1 137 -70 q5 -7 11 -13 q6 -6 11 -13 q87 -118 49 -240 q-38 -122 -177 -243 Z" /><glyph glyph-name="lajixiang" unicode="&#xe645;" d="M944 704 l-189 0 l0 45 q-1 42 -29 70 q-28 28 -70 29 l-294 0 q-42 -1 -70 -29 q-28 -28 -30 -70 l0 -45 l-179 0 q-10 0 -17.5 -7 q-7.5 -7 -7.5 -18 q0 -11 6.5 -18.5 q6.5 -7.5 18.5 -7.5 l61 0 l0 -634 q1 -42 29 -70 q28 -28 70 -29 l551 0 q41 1 69.5 29 q28.5 28 29.5 70 l0 634 l51 0 q10 0 17.5 6.5 q7.5 6.5 8.5 18.5 q-3 10 -8.5 18 q-5.5 8 -17.5 8 ZM317 749 q0 20 14 33.5 q14 13.5 34 14.5 l294 0 q20 -1 34 -14.5 q14 -13.5 14 -33.5 l0 -45 l-390 0 l0 45 ZM842 29 q-1 -23 -12 -40 q-11 -17 -30 -18 l-550 0 q-21 1 -37.5 13 q-16.5 12 -17.5 32 l3 637 l644 0 l0 -624 ZM368 515 q-25 -1 -26 -25 l0 -343 q1 -12 8.5 -18.5 q7.5 -6.5 17.5 -6.5 q10 0 17.5 6.5 q7.5 6.5 8.5 18.5 l0 343 q-3 10 -8.5 17.5 q-5.5 7.5 -17.5 7.5 ZM528 515 q-25 -1 -26 -25 l0 -343 q1 -12 8.5 -18.5 q7.5 -6.5 17.5 -6.5 q10 0 17.5 6.5 q7.5 6.5 8.5 18.5 l0 343 q-3 10 -8.5 17.5 q-5.5 7.5 -17.5 7.5 ZM688 515 q-25 -1 -26 -25 l0 -343 q1 -12 8.5 -18.5 q7.5 -6.5 17.5 -6.5 q10 0 17.5 6.5 q7.5 6.5 8.5 18.5 l0 343 q-3 10 -8.5 17.5 q-5.5 7.5 -17.5 7.5 Z" /><glyph glyph-name="lianjie" unicode="&#xe646;" d="M589 422 l-10 7 q-8 7 -17.5 5.5 q-9.5 -1.5 -15.5 -9 q-6 -7.5 -4.5 -17 q1.5 -9.5 8.5 -14.5 l10 -7 q14 -12 14.5 -29.5 q0.5 -17.5 -11.5 -34.5 l-13 -16 q-7 -8 -5.5 -17 q1.5 -9 9 -15.5 q7.5 -6.5 17 -5 q9.5 1.5 15.5 8.5 l12 16 q24 31 22 67 q-2 36 -31 61 ZM448 176 l-141 -176 q-13 -14 -30.5 -16.5 q-17.5 -2.5 -30.5 6.5 l-137 112 q-14 13 -14.5 30 q-0.5 17 11.5 34 l265 327 q13 14 30.5 16.5 q17.5 2.5 30.5 -7.5 l13 -9 q8 -7 17.5 -5.5 q9.5 1.5 15.5 9 q6 7.5 4.5 17 q-1.5 9.5 -8.5 14.5 l-13 10 q-30 23 -66.5 18 q-36.5 -5 -61.5 -34 l-266 -327 q-24 -30 -21.5 -66 q2.5 -36 31.5 -62 l137 -112 q31 -23 67 -18 q36 5 61 34 l141 176 q7 8 5.5 17.5 q-1.5 9.5 -8.5 15.5 q-7 6 -16 4.5 q-9 -1.5 -16 -8.5 ZM944 621 l-128 105 q-32 24 -69 20.5 q-37 -3.5 -62 -32.5 l-263 -327 q-23 -32 -19.5 -69 q3.5 -37 32.5 -62 l128 -106 q33 -23 69.5 -19.5 q36.5 3.5 61.5 32.5 l263 327 q26 32 22 68.5 q-4 36.5 -35 62.5 ZM922 518 l-263 -326 q-12 -14 -31 -16 q-19 -2 -36 10 l-128 105 q-14 13 -16 31.5 q-2 18.5 10 35.5 l262 327 q13 14 31.5 16 q18.5 2 35.5 -10 l128 -105 q15 -13 17 -31.5 q2 -18.5 -10 -36.5 Z" /><glyph glyph-name="naozhong" unicode="&#xe648;" d="M931 378 q-4 179 -123 296.5 q-119 117.5 -296 122.5 q-180 -5 -297.5 -123.5 q-117.5 -118.5 -121.5 -295.5 q1 -104 46.5 -191 q45.5 -87 122.5 -145 l-57 -52 q-8 -7 -9 -17 q-1 -10 6 -17.5 q7 -7.5 17 -9 q10 -1.5 18 5.5 l70 58 q92 -54 208 -55 q60 0 114.5 16 q54.5 16 100.5 45 q-1 1 3 -3 l73 -61 q8 -7 18 -5.5 q10 1.5 17.5 9 q7.5 7.5 6 17.5 q-1.5 10 -9.5 17 l-64 55 q71 58 113.5 144.5 q42.5 86.5 43.5 188.5 ZM512 6 q-158 4 -262.5 109 q-104.5 105 -108.5 263 q4 157 108.5 262 q104.5 105 262.5 109 q158 -4 262.5 -109 q104.5 -105 108.5 -262 q-4 -158 -108.5 -263 q-104.5 -105 -262.5 -109 ZM208 800 q-8 7 -18 7 q-10 0 -17 -7 l-119 -118 q-7 -8 -7 -18 q0 -10 7.5 -17.5 q7.5 -7.5 17.5 -7.5 q10 0 18 7 l118 119 q7 7 7 17 q0 10 -7 18 ZM970 685 l-119 115 q-7 7 -17 7 q-10 0 -17.5 -7.5 q-7.5 -7.5 -7.5 -17.5 q0 -10 7 -17 l118 -115 q8 -8 18 -8 q10 0 17.5 7.5 q7.5 7.5 7.5 17.5 q0 10 -7 18 ZM707 595 l-144 -128 l0 -1 q-1 -2 -3 -2 l-18 4 q-8 2 -17 2 q-19 0 -32 -6 q0 2 -1.5 3 q-1.5 1 -1.5 3 l-93 84 q-8 7 -18 6.5 q-10 -0.5 -17.5 -9 q-7.5 -8.5 -7 -18.5 q0.5 -10 10.5 -18 l89 -80 q-12 -14 -20 -31.5 q-8 -17.5 -8 -38.5 q1 -42 29.5 -71.5 q28.5 -29.5 72.5 -31.5 q42 1 71.5 30 q29.5 29 30.5 73 q0 38 -25 67 l141 125 q7 7 7.5 17 q0.5 10 -4.5 18 q-12 7 -23 7.5 q-11 0.5 -19 -4.5 ZM525 314 q-22 0 -36.5 14.5 q-14.5 14.5 -14.5 36.5 q0 22 14.5 36 q14.5 14 36.5 14.5 q22 0.5 36.5 -14 q14.5 -14.5 14.5 -36.5 q0 -20 -14.5 -35.5 q-14.5 -15.5 -36.5 -15.5 Z" /><glyph glyph-name="saoyisao" unicode="&#xe649;" d="M864 848 l-698 0 q-36 -1 -59 -27 q-23 -26 -24 -63 l0 -208 q0 -10 6.5 -17.5 q6.5 -7.5 16 -7.5 q9.5 0 16 6.5 q6.5 6.5 6.5 18.5 l0 208 q0 18 10.5 30 q10.5 12 27.5 12 l698 0 q17 0 27.5 -12 q10.5 -12 10.5 -30 l0 -208 q1 -10 7 -17.5 q6 -7.5 16 -7.5 q10 0 16 6.5 q6 6.5 6 18.5 l0 208 q-1 37 -24.5 63 q-23.5 26 -58.5 27 ZM925 214 q-10 0 -16 -6.5 q-6 -6.5 -7 -18.5 l0 -179 q0 -18 -10.5 -29.5 q-10.5 -11.5 -27.5 -12.5 l-698 0 q-17 1 -27.5 12.5 q-10.5 11.5 -10.5 29.5 l0 182 q0 10 -6.5 17.5 q-6.5 7.5 -16 7.5 q-9.5 0 -16 -6.5 q-6.5 -6.5 -6.5 -18.5 l0 -179 q1 -39 25 -64 q24 -25 58 -26 l698 0 q37 1 60 27 q23 26 23 63 l0 179 q0 10 -6 16 q-6 6 -16 6 ZM922 352 q9 0 15.5 6.5 q6.5 6.5 6.5 16 q0 9.5 -6.5 16 q-6.5 6.5 -15.5 6.5 l-820 0 q-9 0 -15.5 -6.5 q-6.5 -6.5 -6.5 -16 q0 -9.5 6.5 -16 q6.5 -6.5 15.5 -6.5 l820 0 Z" /><glyph glyph-name="shangfan" unicode="&#xe64a;" d="M874 477 l-356 361 q-7 8 -15.5 8 q-8.5 0 -16.5 -8 l-355 -368 q-7 -7 -7 -15.5 q0 -8.5 7.5 -16 q7.5 -7.5 16 -7.5 q8.5 0 15.5 7 l317 330 l0 -829 q0 -10 6.5 -16 q6.5 -6 16 -6 q9.5 0 16 6 q6.5 6 6.5 16 l0 823 l310 -317 q8 -7 16.5 -7 q8.5 0 15.5 7 q12 8 13 17.5 q1 9.5 -6 14.5 Z" /><glyph glyph-name="shezhi" unicode="&#xe64b;" d="M512 198 q79 2 130 54.5 q51 52.5 52 131.5 q-2 79 -53.5 131.5 q-51.5 52.5 -128.5 54.5 q-79 -2 -130 -54.5 q-51 -52.5 -52 -131.5 q2 -79 54 -131.5 q52 -52.5 128 -54.5 l0 0 ZM512 250 q-57 1 -95 39 q-38 38 -39 95 q1 57 39 95 q38 38 95 39 q57 -1 95 -39 q38 -38 39 -95 q-1 -57 -39 -95 q-38 -38 -95 -39 l0 0 ZM249 53 q54 -43 112 -67 q32 29 70.5 44.5 q38.5 15.5 81 15.5 q42.5 0 80.5 -15.5 q38 -15.5 69 -44.5 q63 24 112 67 q-10 41 -3.5 82.5 q6.5 41.5 25.5 80.5 q22 36 54.5 63 q32.5 27 73.5 39 q6 34 6 67.5 q0 33.5 -6 67.5 q-41 12 -73.5 39 q-32.5 27 -54 63.5 q-21.5 36.5 -27 79 q-5.5 42.5 4.5 83.5 q-54 44 -112 68 q-31 -29 -69 -45 q-38 -16 -80.5 -16 q-42.5 0 -81 16 q-38.5 16 -70.5 45 q-63 -24 -112 -68 q9 -41 3 -82.5 q-6 -41.5 -25 -80.5 q-22 -36 -54.5 -63 q-32.5 -27 -73.5 -39 q-6 -34 -6 -67.5 q0 -33.5 6 -67.5 q41 -12 73.5 -39 q32.5 -27 54.5 -63 q19 -39 25 -80.5 q6 -41.5 -3 -82.5 ZM361 -62 q-82 28 -150 89 q-5 5 -7 11.5 q-2 6.5 0 11.5 q12 36 8 72.5 q-4 36.5 -24 67.5 q-39 68 -112 84 q-15 4 -16 19 q-5 22 -7 45 q-2 23 -2 44 q0 43 9 90 q6 14 16 19 q37 10 66 31 q29 21 46 52 q19 34 22.5 69.5 q3.5 35.5 -6.5 71.5 q-2 8 0 14 q2 6 7 9 q68 56 150 89 q14 4 22 -6 q27 -27 59.5 -42 q32.5 -15 69 -15.5 q36.5 -0.5 70 14 q33.5 14.5 57.5 43.5 q5 5 11.5 7 q6.5 2 11.5 -1 q82 -28 150 -89 q5 -5 7 -11.5 q2 -6.5 0 -11.5 q-12 -36 -8 -72.5 q4 -36.5 24 -68.5 q39 -68 112 -83 q15 -5 16 -19 q4 -22 6.5 -45 q2.5 -23 2.5 -45 q0 -42 -9 -89 q-6 -15 -16 -19 q-37 -10 -66 -31 q-29 -21 -46 -53 q-19 -33 -22.5 -68.5 q-3.5 -35.5 6.5 -71.5 q2 -8 0 -14 q-2 -6 -7 -9 q-68 -57 -150 -89 q-14 -4 -23 6 q-26 27 -58.5 42 q-32.5 15 -69 15.5 q-36.5 0.5 -70 -14 q-33.5 -14.5 -58.5 -43.5 q-5 -6 -16 -6 l-6 0 Z" /><glyph glyph-name="shengyin" unicode="&#xe64c;" d="M784 525 q-12 19 -24.5 33 q-12.5 14 -20.5 21.5 q-8 7.5 -19 6.5 q-11 -1 -18.5 -9.5 q-7.5 -8.5 -7 -20 q0.5 -11.5 9.5 -18.5 l10 -10 q15 -15 25 -35 q45 -65 39 -134.5 q-6 -69.5 -77 -144.5 q-7 -7 -7 -18.5 q0 -11.5 7.5 -19 q7.5 -7.5 18.5 -7.5 q11 0 19 7 q83 92 90 180.5 q7 88.5 -45 168.5 ZM896 650 q-25 37 -54 70 q-8 9 -14 15 l-12 11 q-8 7 -19.5 6.5 q-11.5 -0.5 -19 -9 q-7.5 -8.5 -7 -20 q0.5 -11.5 10.5 -19.5 l9 -8 q6 -5 13 -14 q12 -15 24 -30 q12 -15 24 -34 q82 -121 71 -251.5 q-11 -130.5 -141 -267.5 q-7 -8 -7 -19 q0 -11 7.5 -18.5 q7.5 -7.5 18.5 -7.5 q11 0 19 7 q144 154 156 303.5 q12 149.5 -79 285.5 ZM483 810 l-217 -186 l-109 0 q-45 -1 -76.5 -31.5 q-31.5 -30.5 -32.5 -77.5 l0 -272 q1 -46 31.5 -76.5 q30.5 -30.5 77.5 -32.5 l96 0 l230 -182 q43 -30 73.5 -15 q30.5 15 32.5 66 l0 755 q-2 54 -34 69 q-32 15 -72 -17 ZM534 6 q1 -16 -3 -17.5 q-4 -1.5 -16 8.5 l-237 185 q-5 6 -16 7 l-105 0 q-23 1 -38.5 16.5 q-15.5 15.5 -16.5 37.5 l0 272 q1 23 16.5 38.5 q15.5 15.5 38.5 16.5 l118 0 q11 0 16 6 l224 192 q12 10 14.5 9 q2.5 -1 1.5 -15 l0 -756 l3 0 Z" /><glyph glyph-name="shijian" unicode="&#xe64d;" d="M512 832 q-197 -5 -326.5 -135.5 q-129.5 -130.5 -134.5 -325.5 q5 -195 135.5 -325.5 q130.5 -130.5 325.5 -135.5 q195 5 325.5 135.5 q130.5 130.5 135.5 325.5 q-5 195 -134.5 325.5 q-129.5 130.5 -326.5 135.5 ZM512 -45 q-175 5 -291.5 121.5 q-116.5 116.5 -121.5 291.5 q5 175 121.5 291.5 q116.5 116.5 291.5 121.5 q175 -5 291.5 -121.5 q116.5 -116.5 121.5 -291.5 q-4 -175 -120 -291.5 q-116 -116.5 -293 -121.5 ZM810 352 l-279 0 l0 282 q0 9 -6 15.5 q-6 6.5 -16 6.5 q-10 0 -16 -6.5 q-6 -6.5 -7 -15.5 l0 -308 q1 -9 7 -15.5 q6 -6.5 16 -6.5 l301 0 q9 0 15.5 6.5 q6.5 6.5 6.5 15.5 q0 13 -6.5 19.5 q-6.5 6.5 -15.5 6.5 Z" /><glyph glyph-name="shouhuodizhi" unicode="&#xe64e;" d="M518 848 q-165 -4 -275.5 -115 q-110.5 -111 -114.5 -279 q0 -36 11 -74.5 q11 -38.5 31 -81.5 q21 -44 51.5 -89.5 q30.5 -45.5 66.5 -93.5 q27 -31 54 -62 l55 -59 l35 -36 l9 -7 q4 -3 4 -5 l0 0 q30 -29 69.5 -29 q39.5 0 67.5 29 l48 48 q57 58 109 121 q39 46 69 92.5 q30 46.5 50 90.5 q42 85 41 156 q3 168 -106 279 q-109 111 -275 115 ZM822 320 q-38 -82 -115 -173 q-26 -31 -52.5 -61.5 q-26.5 -30.5 -52.5 -56.5 l-48 -48 q-16 -15 -36 -15 q-20 0 -35 15 l-48 48 l-54 58 q-27 29 -51 60 q-72 91 -116 173 q-38 77 -38 134 q4 148 100.5 245 q96.5 97 241.5 101 q146 -4 242.5 -101 q96.5 -97 100.5 -245 q0 -57 -39 -134 ZM518 634 q-73 -2 -120.5 -50.5 q-47.5 -48.5 -48.5 -122.5 q2 -74 50 -122.5 q48 -48.5 119 -50.5 q72 2 120 50.5 q48 48.5 50 122.5 q-2 74 -49 122.5 q-47 48.5 -121 50.5 ZM518 339 q-51 1 -85.5 36 q-34.5 35 -35.5 89 q1 54 35.5 89 q34.5 35 85.5 36 q52 -1 86.5 -36 q34.5 -35 35.5 -89 q-1 -54 -35.5 -89 q-34.5 -35 -86.5 -36 Z" /><glyph glyph-name="shouye" unicode="&#xe64f;" d="M970 394 l-119 112 l-323 300 q-7 8 -16 8 q-9 0 -16 -8 l-314 -297 l-9 -10 l-119 -112 q-7 -7 -7 -15.5 q0 -8.5 7.5 -16 q7.5 -7.5 16 -7.5 q8.5 0 15.5 7 l84 80 l0 -393 q1 -37 27 -63 q26 -26 65 -27 l84 0 q29 1 49 19.5 q20 18.5 21 47.5 l0 218 l198 0 l0 -218 q1 -27 21 -46.5 q20 -19.5 50 -20.5 l83 0 q39 1 65.5 25.5 q26.5 24.5 27.5 64.5 l0 396 l80 -73 q7 -7 15.5 -7 q8.5 0 16.5 7 q5 5 4.5 13 q-0.5 8 -7.5 16 ZM810 38 q-1 -19 -13.5 -31.5 q-12.5 -12.5 -31.5 -12.5 l-83 0 q-10 0 -16.5 6 q-6.5 6 -6.5 16 l0 240 q0 10 -6 16 q-6 6 -16 6 l-243 0 q-10 0 -16.5 -6 q-6.5 -6 -6.5 -16 l0 -240 q0 -10 -6 -16 q-6 -6 -16 -6 l-83 0 q-20 0 -32.5 12.5 q-12.5 12.5 -12.5 31.5 l0 439 l294 281 l295 -281 l0 -439 Z" /><glyph glyph-name="sousuo" unicode="&#xe651;" d="M966 -29 l-230 227 q46 51 71 116.5 q25 65.5 25 139.5 q-4 168 -114.5 277.5 q-110.5 109.5 -275.5 113.5 q-168 -5 -277.5 -115.5 q-109.5 -110.5 -113.5 -275.5 q5 -167 115.5 -276.5 q110.5 -109.5 275.5 -113.5 q74 0 139.5 25 q65.5 25 116.5 71 l230 -227 q8 -7 19.5 -7 q11.5 0 18.5 7 q10 10 10 20.5 q0 10.5 -10 17.5 ZM102 454 q4 143 99.5 239.5 q95.5 96.5 240.5 100.5 q145 -4 240 -99 q95 -95 99 -241 q-1 -67 -25 -127 q-24 -60 -68 -106 q-2 0 -3 -1.5 q-1 -1.5 -3 -1.5 l-3 -4 q-1 -1 -1 -3 q-46 -43 -106 -67.5 q-60 -24.5 -127 -25.5 q-146 2 -242.5 97.5 q-96.5 95.5 -100.5 238.5 Z" /><glyph glyph-name="tishi" unicode="&#xe653;" d="M509 851 q-197 -5 -328 -136 q-131 -131 -136 -328 q5 -197 136 -328 q131 -131 328 -136 q197 5 328 136 q131 131 136 328 q-5 197 -136 328 q-131 131 -328 136 ZM509 -29 q-177 5 -294.5 122 q-117.5 117 -121.5 294 q4 177 121.5 294.5 q117.5 117.5 294.5 121.5 q177 -4 294 -121.5 q117 -117.5 122 -294.5 q-5 -177 -122 -294 q-117 -117 -294 -122 ZM522 243 q9 0 15.5 6.5 q6.5 6.5 6.5 16.5 l0 428 q0 10 -6.5 16.5 q-6.5 6.5 -16 6.5 q-9.5 0 -16 -6.5 q-6.5 -6.5 -6.5 -16.5 l0 -428 q-2 -8 5.5 -15 q7.5 -7 17.5 -8 ZM522 147 l0 0 ZM486 147 q1 15 11 25 q10 10 25 10 q15 0 24.5 -10 q9.5 -10 9.5 -25 q0 -15 -9.5 -25 q-9.5 -10 -24.5 -10 q-15 0 -25 10 q-10 10 -11 25 Z" /><glyph glyph-name="wodedingdan" unicode="&#xe655;" d="M883 835 l-89 0 q-10 0 -18 -6.5 q-8 -6.5 -8 -18.5 q1 -25 26 -26 l89 0 q20 -1 34 -14.5 q14 -13.5 14 -33.5 l0 -714 q0 -19 -14 -33 q-14 -14 -34 -15 l-736 0 q-20 1 -33.5 15 q-13.5 14 -14.5 33 l0 714 q1 20 14.5 33.5 q13.5 13.5 33.5 14.5 l99 0 q10 0 18 7 q8 7 8 19 q-1 24 -26 25 l-99 0 q-41 -1 -68 -27.5 q-27 -26.5 -28 -68.5 l0 -713 q1 -42 28 -68.5 q27 -26.5 68 -27.5 l736 0 q42 1 68.5 27.5 q26.5 26.5 27.5 68.5 l0 713 q-1 42 -28.5 68.5 q-27.5 26.5 -67.5 27.5 ZM394 787 l240 0 q10 0 17.5 7 q7.5 7 7.5 19 q-1 25 -25 25 l-240 0 q-10 0 -18 -6.5 q-8 -6.5 -8 -18.5 q0 -12 8 -19 q8 -7 18 -7 ZM294 550 l464 0 q10 0 18 7 q8 7 8 19 q-1 25 -26 26 l-464 0 q-10 0 -17.5 -7 q-7.5 -7 -7.5 -19 q1 -25 25 -26 ZM294 355 l464 0 q10 0 18 7 q8 7 8 19 q-1 25 -26 25 l-464 0 q-10 0 -17.5 -6.5 q-7.5 -6.5 -7.5 -18.5 q1 -25 25 -26 ZM294 160 l464 0 q10 0 18 6.5 q8 6.5 8 19.5 q-1 24 -26 25 l-464 0 q-10 0 -17.5 -6.5 q-7.5 -6.5 -7.5 -18.5 q1 -25 25 -26 Z" /><glyph glyph-name="wodefankui" unicode="&#xe656;" d="M883 813 l-742 0 q-40 -1 -66 -27 q-26 -26 -27 -63 l0 -582 q1 -37 27 -63 q26 -26 66 -27 l256 0 q1 0 16 -19 q5 -4 9 -13 l4 -5 q3 -5 6 -8 q21 -33 41 -50 q20 -17 45.5 -17 q25.5 0 47 17 q21.5 17 42.5 50 l23 36 q6 10 6 9 l249 0 q40 1 66 27 q26 26 27 63 l0 582 q-3 39 -29.5 64 q-26.5 25 -66.5 26 ZM931 141 q0 -20 -12.5 -32.5 q-12.5 -12.5 -32.5 -12.5 l-252 0 q-5 0 -8.5 -0.5 q-3.5 -0.5 -7.5 -2.5 q-8 -5 -15 -11 q-7 -6 -14 -18 q-4 -6 -13 -20 l-10 -15 q-14 -24 -26 -34.5 q-12 -10.5 -21.5 -10.5 q-9.5 0 -20.5 10.5 q-11 10.5 -28 34.5 q-2 3 -4.5 7.5 q-2.5 4.5 -4.5 5.5 q-5 8 -10 12 q-14 20 -26 29.5 q-12 9.5 -28 9.5 l-256 0 q-20 0 -32.5 12.5 q-12.5 12.5 -12.5 32.5 l0 582 q1 20 14.5 32 q13.5 12 33.5 13 l742 0 q20 -1 34 -13 q14 -12 14 -32 l0 -579 l-3 0 ZM221 413 q0 22 14.5 36 q14.5 14 36.5 14 q22 0 36.5 -14 q14.5 -14 14.5 -36 q0 -22 -14.5 -36.5 q-14.5 -14.5 -36.5 -14.5 q-22 0 -36.5 14.5 q-14.5 14.5 -14.5 36.5 ZM461 413 q0 22 14.5 36 q14.5 14 36.5 14 q22 0 36.5 -14 q14.5 -14 14.5 -36 q0 -22 -14.5 -36.5 q-14.5 -14.5 -36.5 -14.5 q-22 0 -36.5 14.5 q-14.5 14.5 -14.5 36.5 ZM698 413 q0 22 14.5 36 q14.5 14 36.5 14 q22 0 36 -14 q14 -14 14 -36 q0 -22 -14 -36.5 q-14 -14.5 -36 -14.5 q-22 0 -36.5 14.5 q-14.5 14.5 -14.5 36.5 Z" /><glyph glyph-name="wodehongbao" unicode="&#xe657;" d="M866 794 q0 0 0 0 q0 4 0 0 q-14 18 -34 29 q-20 11 -44 11 l-574 0 q-43 -1 -70.5 -28.5 q-27.5 -27.5 -28.5 -70.5 l0 -699 q1 -42 28.5 -70 q27.5 -28 70.5 -29 l574 0 q43 1 70.5 29 q27.5 28 28.5 70 l0 699 q1 16 -4.5 31.5 q-5.5 15.5 -16.5 27.5 ZM788 784 q3 0 6.5 -0.5 q3.5 -0.5 6.5 -2.5 l-292 -186 l-314 186 q10 4 19 3 l574 0 ZM838 33 q-1 -21 -14.5 -35 q-13.5 -14 -35.5 -14 l-574 0 q-21 0 -35 14 q-14 14 -15 35 l0 705 l332 -196 q8 -4 14.5 -3 q6.5 1 10.5 3 l317 202 q0 -3 1.5 -6.5 q1.5 -3.5 1.5 -5.5 l0 -699 l-3 0 ZM639 334 q10 1 17.5 8 q7.5 7 7.5 17 q0 10 -7.5 17.5 q-7.5 7.5 -17.5 7.5 l-84 0 l72 71 q7 8 7 17.5 q0 9.5 -7.5 16.5 q-7.5 7 -17 7 q-9.5 0 -16.5 -6 l-81 -81 l-3 0 q0 0 0 0 l-78 77 q-7 7 -16.5 7 q-9.5 0 -17 -7 q-7.5 -7 -7.5 -16.5 q0 -9.5 7 -17.5 l68 -68 l-74 0 q-10 0 -17 -7.5 q-7 -7.5 -7 -17.5 q0 -10 7 -17 q7 -7 17 -8 l93 0 l0 -74 l-93 0 q-10 -1 -17 -8 q-7 -7 -7 -17 q0 -10 7 -17 q7 -7 17 -8 l93 0 l0 -90 q0 -9 7.5 -16.5 q7.5 -7.5 17.5 -7.5 q10 0 17 7.5 q7 7.5 8 16.5 l0 90 l108 0 q10 1 17.5 8 q7.5 7 7.5 17 q0 10 -7.5 17 q-7.5 7 -17.5 8 l-108 0 l0 74 l105 0 Z" /><glyph glyph-name="wodeyouhuiquan" unicode="&#xe65a;" d="M877 730 l-727 0 q-44 -1 -72.5 -30 q-28.5 -29 -29.5 -73 l0 -166 l26 0 q20 -1 35 -15.5 q15 -14.5 16 -39.5 q-1 -22 -15 -37.5 q-14 -15.5 -36 -16.5 l-26 0 l0 -170 q1 -44 29.5 -72.5 q28.5 -28.5 72.5 -29.5 l727 0 q44 1 72.5 29.5 q28.5 28.5 29.5 72.5 l0 170 l-22 0 q-20 0 -35.5 15 q-15.5 15 -15.5 39 q0 23 14.5 38.5 q14.5 15.5 36.5 16.5 l15 0 q8 0 7 0 l0 169 q-3 42 -31.5 70.5 q-28.5 28.5 -70.5 29.5 ZM851 410 q1 -37 21.5 -63 q20.5 -26 52.5 -37 l0 -121 q-1 -22 -15 -36.5 q-14 -14.5 -36 -14.5 l-727 0 q-22 0 -36 14.5 q-14 14.5 -15 36.5 l0 118 q38 6 57.5 35.5 q19.5 29.5 19 67 q-0.5 37.5 -21.5 66 q-21 28.5 -55 36.5 l0 115 q1 22 15 36.5 q14 14.5 36 14.5 l727 0 q22 0 36 -14.5 q14 -14.5 15 -36.5 l0 -118 q-32 -8 -52.5 -35.5 q-20.5 -27.5 -21.5 -63.5 ZM614 406 q10 1 18 8.5 q8 7.5 8 17.5 q0 10 -8 17.5 q-8 7.5 -18 8.5 l-67 0 l58 57 q7 8 7 18 q0 10 -7.5 17.5 q-7.5 7.5 -17.5 7.5 q-10 0 -17 -8 l-58 -57 l-58 57 q-7 8 -17 8 q-10 0 -17.5 -7.5 q-7.5 -7.5 -7.5 -17.5 q0 -10 7 -18 l58 -57 l-64 0 q-10 -1 -17.5 -8.5 q-7.5 -7.5 -7.5 -17.5 q0 -10 7.5 -17.5 q7.5 -7.5 17.5 -8.5 l80 0 l0 -51 l-80 0 q-10 0 -17.5 -7.5 q-7.5 -7.5 -7.5 -17.5 q0 -10 7.5 -18 q7.5 -8 17.5 -8 l80 0 l0 -51 q0 -10 7.5 -17.5 q7.5 -7.5 17.5 -7.5 q10 0 18 7.5 q8 7.5 8 17.5 l0 51 l77 0 q10 0 17.5 8 q7.5 8 7.5 18 q0 10 -7.5 17.5 q-7.5 7.5 -17.5 7.5 l-77 0 l0 51 l70 0 Z" /><glyph glyph-name="xiafan" unicode="&#xe65b;" d="M922 333 q-8 7 -18 7 q-10 0 -18 -7 l-342 -333 l0 822 q0 10 -6.5 16.5 q-6.5 6.5 -19 6.5 q-12.5 0 -19 -6.5 q-6.5 -6.5 -6.5 -16.5 l0 -822 l-343 339 q-7 7 -17 7 q-10 0 -17.5 -7 q-7.5 -7 -7.5 -15.5 q0 -8.5 7 -16.5 l384 -377 q5 -5 10 -6 q5 -1 9 -1 q0 0 0 0 l7 0 q-1 0 3.5 0.5 q4.5 0.5 9.5 6.5 l380 371 q10 5 10.5 14.5 q0.5 9.5 -6.5 17.5 Z" /><glyph glyph-name="xiala" unicode="&#xe65c;" d="M787 515 q-15 14 -35 13 l-480 -3 q-20 1 -35 -13.5 q-15 -14.5 -15 -33 q0 -18.5 15 -33.5 l240 -240 q0 0 0 0 q0 0 0 0 q2 -3 6 -5 q4 -2 7 -5 l3 -3 q12 -5 26.5 -2.5 q14.5 2.5 24.5 12.5 l240 243 q16 17 16 36 q0 19 -13 34 Z" /><glyph glyph-name="xiangshangjiantou" unicode="&#xe65d;" d="M966 227 l-435 432 q-7 7 -17 7 q-10 0 -18 -7 l-442 -432 q-7 -7 -7 -17 q0 -10 7.5 -17.5 q7.5 -7.5 17.5 -7.5 q10 0 18 7 l425 416 l416 -416 q8 -7 18 -7 q10 0 17.5 7.5 q7.5 7.5 7.5 17.5 q0 10 -8 17 Z" /><glyph glyph-name="xiangxiajiantou" unicode="&#xe65e;" d="M966 573 q-7 7 -17 7 q-10 0 -18 -7 l-416 -416 l-425 416 q-8 7 -18 7 q-10 0 -17.5 -7.5 q-7.5 -7.5 -7.5 -17.5 q0 -10 7 -17 l442 -432 q8 -8 18 -8 q10 0 17 8 l435 432 q15 20 0 35 Z" /><glyph glyph-name="xiangyoujiantou" unicode="&#xe65f;" d="M762 406 l-432 436 q-8 7 -18 7 q-10 0 -17.5 -7.5 q-7.5 -7.5 -7.5 -17.5 q0 -10 7 -18 l416 -416 l-416 -425 q-7 -8 -7 -18 q0 -10 7.5 -17.5 q7.5 -7.5 17.5 -7.5 q10 0 18 8 l432 441 q7 8 7 18 q0 10 -7 17 Z" /><glyph glyph-name="xiangzuojiantou" unicode="&#xe660;" d="M730 -35 l-416 425 l416 416 q7 8 7 18 q0 10 -7.5 17.5 q-7.5 7.5 -17.5 7.5 q-10 0 -18 -7 l-432 -436 q-7 -7 -7 -17 q0 -10 7 -18 l432 -441 q8 -8 18 -8 q10 0 17.5 7.5 q7.5 7.5 7.5 17.5 q0 10 -7 18 Z" /><glyph glyph-name="yanjing" unicode="&#xe661;" d="M515 672 q-232 -20 -361.5 -157 q-129.5 -137 -131.5 -157 q5 -19 142.5 -152 q137.5 -133 350.5 -152 q214 19 351 152 q137 133 142 152 q-2 20 -131 157 q-129 137 -362 157 ZM832 243 q-77 -65 -157.5 -102.5 q-80.5 -37.5 -162.5 -37.5 q-82 0 -162.5 36.5 q-80.5 36.5 -157.5 103.5 q-27 24 -52 48.5 q-25 24.5 -47 50.5 q-5 5 -8.5 10 q-3.5 5 -7.5 10 q2 4 6 9 q4 5 7 10 q39 53 92 102 q75 68 157 106 q82 38 173 38 q91 0 173 -38 q82 -38 157 -106 q26 -24 48.5 -50 q22.5 -26 43.5 -52 q3 -5 7 -10 q4 -5 6 -9 q-5 -10 -16 -20 q-21 -24 -45.5 -49.5 q-24.5 -25.5 -53.5 -49.5 ZM512 550 q-74 -1 -121 -49.5 q-47 -48.5 -49 -119.5 q2 -74 50.5 -121 q48.5 -47 119.5 -49 q74 2 121 50 q47 48 49 120 q-2 71 -50.5 119 q-48.5 48 -119.5 50 ZM512 256 q-52 1 -86 35.5 q-34 34.5 -36 86.5 q2 51 36 85.5 q34 34.5 86 35.5 q52 -1 86 -35.5 q34 -34.5 36 -85.5 q-2 -50 -36 -85 q-34 -35 -86 -37 Z" /><glyph glyph-name="yijianfankui" unicode="&#xe662;" d="M874 621 q-12 -1 -19 -8.5 q-7 -7.5 -7 -17.5 l0 -550 q0 -22 -14.5 -36.5 q-14.5 -14.5 -36.5 -14.5 l-643 0 q-23 0 -37 14.5 q-14 14.5 -15 36.5 l0 646 q1 22 15 36.5 q14 14.5 37 14.5 l521 0 q12 1 19 8.5 q7 7.5 6.5 17.5 q-0.5 10 -8 17.5 q-7.5 7.5 -17.5 8.5 l-521 0 q-45 -2 -75 -31.5 q-30 -29.5 -31 -71.5 l0 -646 q1 -44 31 -73 q30 -29 75 -30 l643 0 q44 1 74 30 q30 29 31 73 l0 550 q-4 25 -28 26 ZM483 534 l-278 0 q-12 0 -19 -7.5 q-7 -7.5 -6.5 -17.5 q0.5 -10 8 -17.5 q7.5 -7.5 17.5 -8.5 l278 0 q12 1 19 8.5 q7 7.5 6.5 18.5 q-0.5 11 -8 17.5 q-7.5 6.5 -17.5 6.5 ZM179 330 q1 -10 8.5 -18 q7.5 -8 17.5 -8 l461 0 q12 0 18.5 8 q6.5 8 6.5 18 q0 10 -7.5 17.5 q-7.5 7.5 -17.5 7.5 l-461 0 q-10 0 -17.5 -7.5 q-7.5 -7.5 -8.5 -17.5 ZM970 838 q-8 8 -18.5 8 q-10.5 0 -20.5 -8 l-326 -323 q-7 -7 -7 -17 q0 -10 7 -17.5 q7 -7.5 17.5 -7.5 q10.5 0 20.5 7 l327 323 q7 8 7 18 q0 10 -7 17 Z" /><glyph glyph-name="zhaoxiangji" unicode="&#xe663;" d="M512 608 q-96 -2 -159 -65 q-63 -63 -65 -159 q2 -96 65 -159 q63 -63 159 -65 q96 2 159 65 q63 63 65 159 q-2 96 -65 159 q-63 63 -159 65 ZM512 208 q-74 2 -124 52 q-50 50 -52 124 q2 74 52 124 q50 50 124 52 q74 -2 124 -52 q50 -50 52 -124 q-2 -74 -52 -124 q-50 -50 -124 -52 ZM768 525 q1 22 15 36 q14 14 36 14 q22 0 36.5 -14 q14.5 -14 14.5 -36 q0 -22 -14.5 -36.5 q-14.5 -14.5 -36.5 -14.5 q-22 0 -36 14.5 q-14 14.5 -15 36.5 ZM864 672 l-96 0 l-22 67 q-6 13 -18 21 q-12 8 -24 8 l-384 0 q-15 0 -26 -8 q-11 -8 -16 -21 l-22 -67 l-96 0 q-42 -1 -68.5 -27.5 q-26.5 -26.5 -27.5 -68.5 l0 -448 q1 -42 28.5 -68.5 q27.5 -26.5 67.5 -27.5 l704 0 q42 1 68.5 27.5 q26.5 26.5 27.5 68.5 l0 448 q-1 42 -27.5 68.5 q-26.5 26.5 -68.5 27.5 ZM912 128 q-1 -20 -14.5 -33.5 q-13.5 -13.5 -33.5 -14.5 l-704 0 q-20 1 -33.5 14.5 q-13.5 13.5 -14.5 33.5 l0 448 q1 20 14.5 33.5 q13.5 13.5 33.5 14.5 l131 0 l10 32 l22 64 l378 0 l22 -64 l10 -32 l131 0 q20 -1 33.5 -14.5 q13.5 -13.5 14.5 -33.5 l0 -448 Z" /><glyph glyph-name="zhengque" unicode="&#xe664;" d="M970 688 q-8 7 -18 7 q-10 0 -18 -7 l-508 -538 q-15 -14 -34 -14.5 q-19 -0.5 -37 11.5 l-265 253 q-8 7 -18 7 q-10 0 -17.5 -7.5 q-7.5 -7.5 -7.5 -17.5 q0 -10 7 -17 l266 -253 q30 -29 70 -27.5 q40 1.5 68 30.5 l508 538 q10 7 10.5 17 q0.5 10 -6.5 18 Z" /><glyph glyph-name="xiaoxizhongxin" unicode="&#xe665;" d="M586 -10 l0 0 q19 24 29 34.5 q10 10.5 12 10.5 q158 32 251 139 q93 107 95 258 q-3 175 -133.5 288.5 q-130.5 113.5 -327.5 117.5 q-197 -4 -328 -117.5 q-131 -113.5 -136 -288.5 q2 -151 96 -258 q94 -107 250 -139 q2 0 12 -10.5 q10 -10.5 29 -34.5 l0 0 q24 -31 41 -47 q17 -16 33 -16 q16 0 33.5 16 q17.5 16 43.5 47 ZM621 93 q-14 -2 -28 -16.5 q-14 -14.5 -39 -47.5 l0 0 q-18 -20 -30 -32 l-12 -13 l-10 10 q-5 5 -11 13 l-14 19 q-28 35 -42.5 50 q-14.5 15 -28.5 17 q-141 26 -223 119.5 q-82 93.5 -84 225.5 q5 148 122 248 q117 100 294 104 q177 -4 294.5 -104 q117.5 -100 121.5 -248 q-4 -134 -86.5 -226.5 q-82.5 -92.5 -223.5 -118.5 ZM282 426 q0 20 12.5 33.5 q12.5 13.5 31.5 13.5 q19 0 32 -13.5 q13 -13.5 13 -34 q0 -20.5 -13 -34 q-13 -13.5 -32 -13.5 q-19 0 -31.5 13.5 q-12.5 13.5 -12.5 34.5 ZM467 426 q1 20 13.5 33.5 q12.5 13.5 31.5 13.5 q19 0 31.5 -13.5 q12.5 -13.5 12.5 -34 q0 -20.5 -12.5 -34 q-12.5 -13.5 -31.5 -13.5 q-19 0 -31.5 13.5 q-12.5 13.5 -13.5 34.5 ZM653 426 q0 20 13 33.5 q13 13.5 32 13.5 q19 0 31.5 -13.5 q12.5 -13.5 12.5 -34 q0 -20.5 -12.5 -34 q-12.5 -13.5 -31.5 -13.5 q-19 0 -32 13.5 q-13 13.5 -13 34.5 Z" /><glyph glyph-name="lingcunwei" unicode="&#xe666;" d="M931 429 q-10 0 -16 -6.5 q-6 -6.5 -6 -16.5 l0 -329 q-1 -17 -13 -29 q-12 -12 -29 -13 l-733 0 q-17 1 -29 13 q-12 12 -12 29 l0 563 q0 17 12 29 q12 12 29 13 l295 0 q10 0 16 6 q6 6 6 16 q0 10 -6 16 q-6 6 -16 6 l-295 0 q-37 0 -62.5 -25 q-25.5 -25 -26.5 -64 l0 -563 q1 -38 25.5 -63.5 q24.5 -25.5 63.5 -26.5 l733 0 q37 1 63 25.5 q26 24.5 27 64.5 l0 329 q0 10 -7 17.5 q-7 7.5 -19 8.5 ZM970 630 l-96 109 q-16 14 -36 3 q-13 -15 -3 -35 l48 -57 q-51 0 -108.5 -12.5 q-57.5 -12.5 -115.5 -39.5 q-101 -47 -167.5 -139.5 q-66.5 -92.5 -91.5 -231.5 q-2 -10 3.5 -18 q5.5 -8 15.5 -10.5 q10 -2.5 18 3.5 q8 6 11 16 q22 126 81.5 209.5 q59.5 83.5 148.5 126.5 q34 16 71.5 26.5 q37.5 10.5 76.5 14.5 q19 3 37.5 4.5 q18.5 1.5 35.5 -1.5 l-83 -73 q-14 -15 -3 -35 q15 -14 35 -4 l115 100 q12 14 13 25.5 q1 11.5 -6 18.5 Z" /><glyph glyph-name="new" unicode="&#xe667;" d="M890 624 l-759 0 q-32 -1 -52.5 -21.5 q-20.5 -20.5 -20.5 -52.5 l0 -361 q0 -32 20.5 -52.5 q20.5 -20.5 52.5 -21.5 l759 0 q32 1 52.5 21.5 q20.5 20.5 20.5 52.5 l0 361 q0 32 -20.5 52.5 q-20.5 20.5 -52.5 21.5 ZM320 250 l-51 0 l-99 195 l0 -195 l-32 0 l0 233 l44 0 l103 -201 l3 0 l0 201 l32 0 l0 -233 ZM400 384 l125 0 l0 -32 l-125 0 l0 -6 q0 -62 38 -61 l90 0 l0 -32 l-90 0 q-28 -1 -48 22 q-9 12 -14 30.5 q-5 18.5 -5 40.5 l0 54 q1 40 22 59.5 q21 19.5 49 23.5 l86 0 l0 -32 l-83 0 q-11 -2 -25.5 -12.5 q-14.5 -10.5 -16.5 -38.5 q-2 -5 -2.5 -8 q-0.5 -3 -0.5 -8 ZM816 250 l-45 0 l-45 185 l-51 -185 l-48 0 l-67 233 l35 0 l58 -192 l3 0 l51 192 l39 0 l51 -201 l61 201 l32 0 l-74 -233 Z" /><glyph glyph-name="301" unicode="&#xe67c;" d="M983 444 l0 0 q-7 6 -17 5.5 q-10 -0.5 -16 -8.5 l-14 -16 q-7 71 -35 136 q-32 75 -91 135 q-63 65 -147 100 q-80 34 -168 35 q-88 1 -169 -31 q-85 -33 -150 -96 q-133 -137 -135 -316 q-2 -179 127 -319 q64 -64 144.5 -99 q80.5 -35 171.5 -36 l0 0 q10 0 17 7 q3 3 5 7.5 q2 4.5 2 9.5 l0 60 q0 10 -7 17 q-7 7 -17 7 l0 0 q-10 0 -17 -7 q-7 -7 -7 -17 l0 -35 q-65 5 -125 30 q-60 25 -109 68 l25 24 q7 8 7 17.5 q0 9.5 -7 16.5 q-7 7 -16 7 l-1 0 q-9 0 -16 -6 l-26 -26 q-47 52 -73 115 q-26 63 -30 133 l41 -1 q10 0 17 7 q7 7 7 17 q0 10 -6.5 17 q-6.5 7 -16.5 7 l-41 1 q4 67 30 129 q26 62 72 112 l25 -26 q7 -7 16.5 -7 q9.5 0 17 7 q7.5 7 7.5 16.5 q0 9.5 -7 17.5 l-25 26 q50 43 110.5 68 q60.5 25 127.5 30 l0 -32 q0 -10 7 -17 q7 -7 17 -7 q10 0 17 7 q7 7 7 17 l0 32 q71 -4 135 -31.5 q64 -27.5 116 -75.5 l-23 -23 q-7 -7 -7 -16.5 q0 -9.5 6.5 -17 q6.5 -7.5 16.5 -7.5 q10 0 17 7 l23 22 q41 -49 65 -109 q21 -50 27 -105 l-13 14 q-6 8 -16 8.5 q-10 0.5 -17.5 -6 q-7.5 -6.5 -8 -16 q-0.5 -9.5 5.5 -17.5 l55 -64 q7 -8 18 -8 l1 0 q11 0 18 8 l55 64 q6 7 5.5 17 q-0.5 10 -8.5 17 ZM723 526 q3 10 -1.5 19 q-4.5 9 -14 11.5 q-9.5 2.5 -18.5 -1.5 l-192 -166 l-107 66 q-9 5 -18.5 2 q-9.5 -3 -14 -11.5 q-4.5 -8.5 -2 -18 q2.5 -9.5 11.5 -14.5 l120 -74 q6 -3 12 -3 l3 0 q4 1 8 3 l203 174 q7 5 10 13 ZM719 117 q9 6 15 14 q13 18 13 43 q0 20 -8 34.5 q-8 14.5 -21 23.5 q-13 9 -29 13.5 q-16 4.5 -32 4.5 q-21 0 -38.5 -7.5 q-17.5 -7.5 -29.5 -20.5 q-12 -13 -18 -30 q-5 -13 -6 -27 q-1 -8 4.5 -14 q5.5 -6 13.5 -6 l5 0 q8 0 13 5 q5 5 5.5 13 q0.5 8 3.5 15 q3 11 9 18 q6 7 15.5 11 q9.5 4 21.5 4 q12 0 20.5 -2 q8.5 -2 15 -7 q6.5 -5 10 -12.5 q3.5 -7.5 3.5 -18 q0 -10.5 -4 -17.5 q-4 -7 -10 -12 q-6 -5 -14 -7 q-8 -2 -16 -2 l-10 0 q-8 -1 -13.5 -6 q-5.5 -5 -5.5 -13 l0 -1 q0 -8 5.5 -13 q5.5 -5 13.5 -6 l10 0 q12 0 22 -3 q10 -3 17 -8.5 q7 -5.5 11 -14 q4 -8.5 4 -20.5 q0 -12 -4.5 -21 q-4.5 -9 -12.5 -15 q-8 -6 -18.5 -9.5 q-10.5 -3.5 -22.5 -3.5 q-14 0 -25 4.5 q-11 4.5 -18 12 q-7 7.5 -10 18.5 q-3 8 -3.5 16 q-0.5 8 -5.5 13 q-5 5 -13 6 l-5 0 q-8 -1 -13.5 -6 q-5.5 -5 -5.5 -13 q0 -17 6 -32 q7 -18 20.5 -31 q13.5 -13 32.5 -19.5 q19 -6.5 40 -6.5 q20 0 38 5.5 q18 5.5 31.5 17 q13.5 11.5 22 28 q8.5 16.5 8.5 38.5 q0 29 -16 49 q-9 11 -22 18 ZM951 200 q-6 12 -11.5 18.5 q-5.5 6.5 -19.5 16.5 q-18 15 -52 15 l0 0 q-31 0 -51.5 -14 q-20.5 -14 -31 -35.5 q-10.5 -21.5 -14.5 -46.5 q-4 -25 -4 -49 q0 -24 4 -49 q4 -25 14.5 -46 q10.5 -21 31 -35 q20.5 -14 52 -14 q31.5 0 51.5 14 q20 14 30.5 35 q10.5 21 14.5 46.5 q4 25.5 4 49 q0 23.5 -4 48.5 q-4 25 -14 46 ZM927 105 q0 -16 -2.5 -35.5 q-2.5 -19.5 -8.5 -35 q-6 -15.5 -17.5 -25.5 q-11.5 -10 -30.5 -10 q-19 0 -30.5 10 q-11.5 10 -17.5 25.5 q-6 15.5 -8.5 35 q-2.5 19.5 -2.5 36 q0 16.5 2.5 36 q2.5 19.5 8.5 35 q6 15.5 17.5 25 q11.5 9.5 30.5 9.5 q19 0 30.5 -9.5 q11.5 -9.5 17.5 -25 q6 -15.5 8.5 -35 q2.5 -19.5 2.5 -36.5 Z" /><glyph glyph-name="7" unicode="&#xe67d;" d="M963 412 l0 1 l0 3 q-5 62 -26 121 l-4 9 q-27 69 -74 126 q-63 75 -151 118 l-1 0 q-56 28 -116.5 39 q-60.5 11 -122.5 5 q-62 -6 -119.5 -28 q-57.5 -22 -107.5 -59 q-53 -40 -92 -93 q-37 -49 -60 -106 q-20 -51 -27 -106 q-7 -55 -1 -110 q8 -75 39 -141.5 q31 -66.5 83.5 -122 q52.5 -55.5 121 -90 q68.5 -34.5 145.5 -45.5 l3 0 q8 0 14 4.5 q6 4.5 8 9.5 l2 0 l21 99 q9 39 15 62 q20 69 59.5 154 q39.5 85 90.5 159.5 q51 74.5 82 104.5 l3 2 l0 84 l-469 0 l0 -100 l347 0 q-61 -74 -118 -172 q-94 -165 -129 -332 q-66 23 -120 66 q-2 2 -4 4 q-62 52 -99 121 q-37 69 -45 150 q-8 84 18 163 q26 77 79 139 q43 47 98 80 q55 33 119 47 l5 1 q64 13 129 5 q65 -8 125 -36 q43 -21 80.5 -52 q37.5 -31 66.5 -69 q48 -65 67 -141 q19 -76 8 -155 q0 -3 0 -7 q-8 -52 -30 -100.5 q-22 -48.5 -56 -90.5 q-6 -7 -5 -17 q1 -10 9 -16 q4 -4 10 -5 q8 -5 17 -3.5 q9 1.5 15 9.5 q52 66 77 146 q25 80 20 165 Z" /><glyph glyph-name="mian" unicode="&#xe67e;" d="M968 397 q-1 9 -1 18 q-1 17 -4 34 q-8 54 -27 102 l-8 19 l-44 76 q-18 24 -39 46 l-16 16 q-66 62 -146 93 q-76 30 -162 31 q-37 0 -73 -5 q-51 -8 -96 -26 l-25 -10 q-83 -38 -144 -105 q-38 -42 -64 -90 q-26 -48 -39 -100 q-23 -86 -10 -179 q13 -82 51.5 -152 q38.5 -70 100.5 -123 l3 -2 q61 -52 134.5 -79 q73.5 -27 153.5 -27 l21 1 q10 0 16.5 7.5 q6.5 7.5 6 17.5 q-0.5 10 -8 16.5 q-7.5 6.5 -16.5 6.5 q-70 -3 -135 16.5 q-65 19.5 -120 60.5 l-1 1 q-12 8 -23 18 l-10 8 q-85 80 -114.5 185 q-29.5 105 -2.5 212 q23 88 81.5 157.5 q58.5 69.5 142.5 107.5 l15 6 q63 25 131 28 q78 4 152 -22 l24 -9 q42 -19 80 -47 q12 -8 23 -18 l13 -11 q27 -26 49 -55 l19 -28 q53 -87 58 -190 l0 -3 q3 -66 -15.5 -129 q-18.5 -63 -56.5 -118 l-192 0 q-22 -1 -33 10.5 q-11 11.5 -9 30.5 l0 88 q0 21 -26 21 q-26 0 -26 -21 l0 -112 q2 -62 88 -65 l219 1 q7 0 12 6 q45 61 69 134 q24 73 23 149 l1 2 ZM253 155 q-31 -11 -26 -37 q13 -26 45 -18 q195 49 271 206 l208 0 q47 -3 44 57 l0 117 q6 52 -49 47 l-141 0 q34 52 44 78 q29 63 -46 63 l-139 0 q6 8 8 10 q13 31 -10 47 q-24 11 -39 -18 q-71 -143 -175 -203 q-26 -16 -15 -39 q15 -21 44 -6 l15 11 q3 0 6 2 l0 -117 q-3 -52 47 -49 l135 0 q-60 -110 -227 -151 ZM720 478 q26 5 23 -24 l0 -75 q0 -26 -23 -24 l-164 0 q10 47 13 123 l151 0 ZM433 613 l143 0 q11 0 13.5 -2.5 q2.5 -2.5 -2.5 -10.5 q-13 -29 -47 -73 l-180 0 q37 34 73 86 ZM373 355 q-26 -2 -26 24 l0 78 q3 21 26 21 l141 0 q-3 -21 0 -13 q-8 -84 -13 -110 l-128 0 Z" /><glyph glyph-name="jushoucanggift" unicode="&#xe684;" d="M893 672 q-14 17 -27 31 q-81 83 -165 82 q-84 -1 -165 -66 q-14 -11 -27 -23 q-13 12 -27 23 q-80 65 -164.5 66 q-84.5 1 -165.5 -82 q-13 -14 -25 -30 q-95 -141 -54 -277.5 q41 -136.5 187 -263.5 q64 -56 133 -100 q23 -15 43 -27 l17 -9 q8 -5 14 -7.5 q6 -2.5 13 -4.5 q20 -5 44 -1.5 q24 3.5 42 13.5 l16 9 q20 12 44 27 q68 44 133 100 q146 127 186.5 263.5 q40.5 136.5 -52.5 276.5 Z" /><glyph glyph-name="liwu" unicode="&#xe685;" d="M925 73 l0 307 q16 9 25.5 25 q9.5 16 9.5 36 l0 78 q-1 30 -21 50 q-20 20 -50 20 l-92 0 l6 4 q32 20 52.5 40 q20.5 20 27 42.5 q6.5 22.5 -3.5 42 q-10 19.5 -35 34.5 q-59 33 -142 12 q-58 -14 -121 -49 q-34 -18 -63 -38 l-13 -9 l-21 19 q-45 37 -90 60 q-45 23 -88 29 q-72 9 -129 -37 l-7 -7 q-28 -36 -18.5 -72.5 q9.5 -36.5 45.5 -70.5 l-60 0 q-30 0 -50 -20 q-20 -20 -20 -50 l0 -78 q0 -20 9.5 -36 q9.5 -16 25.5 -25 l0 -307 q1 -39 27.5 -65.5 q26.5 -26.5 66.5 -27.5 l635 0 q40 1 66.5 27.5 q26.5 26.5 27.5 65.5 ZM604 674 q57 32 109 44 q66 16 107 -7 q12 -7 15.5 -12 q3.5 -5 1.5 -11 q-3 -11 -18.5 -25 q-15.5 -14 -40.5 -30 q-23 -14 -47 -26 l-21 -9 q-6 -3 -10 -9 l-122 0 q-1 5 -4 9 l-7 8 l-27 29 l4 3 q28 19 60 36 ZM273 592 q-3 2 -12 7 q-14 10 -28 21 q-53 47 -26 83 l1 1 q41 32 92 25 q36 -4 75 -24.5 q39 -20.5 79 -54.5 q33 -27 61 -56 l4 -5 l-243 0 l-3 3 ZM114 519 q0 10 6.5 16.5 q6.5 6.5 16.5 7.5 l752 0 q10 -1 17 -7.5 q7 -6.5 7 -16.5 l0 -78 q0 -10 -6 -16 q-3 0 -6 0 l-776 0 q-2 0 -5 0 q-6 6 -6 16 l0 78 ZM196 27 q-20 0 -33.5 13 q-13.5 13 -13.5 33 l0 297 l729 0 l0 -297 q-1 -19 -14 -32.5 q-13 -13.5 -33 -13.5 l-635 0 Z" /><glyph glyph-name="yuyin" unicode="&#xe687;" d="M827 445 q-10 0 -17 -6.5 q-7 -6.5 -7 -15.5 l-1 -13 q-2 -16 -6 -35 q-10 -55 -36 -107 q-35 -71 -96 -110.5 q-61 -39.5 -152 -39.5 q-91 0 -152 39.5 q-61 39.5 -96 110.5 q-26 52 -36 107 q-4 19 -6 35 l-1 13 q0 9 -7 15.5 q-7 6.5 -17 6 q-10 -0.5 -16.5 -7.5 q-6.5 -7 -6.5 -17 q1 -17 8 -54 q12 -61 40 -119 q39 -77 105 -122.5 q66 -45.5 160 -52.5 l0 -85 l-196 0 q-10 -1 -16.5 -7.5 q-6.5 -6.5 -6.5 -16.5 q0 -10 6.5 -16.5 q6.5 -6.5 16.5 -6.5 l442 0 q10 0 16.5 6.5 q6.5 6.5 6.5 16.5 q0 10 -6.5 16.5 q-6.5 6.5 -16.5 7.5 l-199 0 l0 85 q96 6 162.5 51.5 q66.5 45.5 105.5 123.5 q28 58 40 119 q7 37 8 54 q0 10 -6.5 17 q-6.5 7 -16.5 8 ZM510 196 q82 2 136.5 56.5 q54.5 54.5 57.5 136.5 l0 246 q-3 82 -57.5 136.5 q-54.5 54.5 -136.5 56.5 q-82 -2 -136.5 -56.5 q-54.5 -54.5 -56.5 -136.5 l0 -246 q2 -82 56.5 -136.5 q54.5 -54.5 136.5 -56.5 ZM364 635 q1 62 42.5 103.5 q41.5 41.5 103.5 42.5 q62 -1 103.5 -42.5 q41.5 -41.5 43.5 -103.5 l0 -246 q-2 -62 -43.5 -103.5 q-41.5 -41.5 -103.5 -42.5 q-62 1 -103.5 42.5 q-41.5 41.5 -42.5 103.5 l0 246 Z" /><glyph glyph-name="yonghu" unicode="&#xe658;" d="M843 26 q-8 107 -71.5 186.5 q-63.5 79.5 -162.5 110.5 q60 29 96 84 q36 55 37 125 q-2 98 -67 163 q-65 65 -163 67 q-98 -2 -163 -67 q-65 -65 -67 -163 q1 -70 37 -125 q36 -55 96 -84 q-99 -31 -162.5 -110.5 q-63.5 -79.5 -71.5 -186.5 q0 -9 5 -14.5 q5 -5.5 14 -5.5 l0 0 q7 0 12.5 5 q5.5 5 6.5 12 q9 119 91 196.5 q82 77.5 202 80.5 q120 -3 202 -80.5 q82 -77.5 91 -196.5 q1 -7 6.5 -12 q5.5 -5 13.5 -5 q8 0 13.5 5.5 q5.5 5.5 4.5 14.5 ZM320 532 q2 82 56 136 q54 54 136 56 q82 -2 136 -56 q54 -54 56 -136 q-2 -82 -56 -136 q-54 -54 -136 -57 q-82 3 -136 57 q-54 54 -56 136 Z" /><glyph glyph-name="webicon318" unicode="&#xe6a9;" d="M512 704 q-136 -3 -226.5 -93.5 q-90.5 -90.5 -93.5 -226.5 q3 -136 93.5 -226.5 q90.5 -90.5 226.5 -93.5 q136 3 226.5 93.5 q90.5 90.5 93.5 226.5 q-3 136 -93.5 226.5 q-90.5 90.5 -226.5 93.5 ZM512 96 q-122 3 -203.5 84.5 q-81.5 81.5 -84.5 203.5 q3 122 84.5 203.5 q81.5 81.5 203.5 84.5 q122 -3 203.5 -84.5 q81.5 -81.5 84.5 -203.5 q-3 -122 -84.5 -203.5 q-81.5 -81.5 -203.5 -84.5 ZM512 384 l0 0 ZM304 384 q2 88 61 147 q59 59 147 61 q88 -2 147 -61 q59 -59 61 -147 q-2 -88 -61 -147 q-59 -59 -147 -61 q-88 2 -147 61 q-59 59 -61 147 Z" /><glyph glyph-name="shouji1" unicode="&#xe626;" d="M768 -128 l-512 0 q-40 1 -66 27.5 q-26 26.5 -27 65.5 l0 838 q1 39 27 65.5 q26 26.5 66 27.5 l512 0 q40 -1 66 -27.5 q26 -26.5 27 -65.5 l0 -838 q-1 -39 -27 -65.5 q-26 -26.5 -66 -27.5 ZM815 803 q-1 20 -14 33 q-13 13 -33 13 l-512 0 q-20 0 -33 -13 q-13 -13 -14 -33 l0 -605 l606 0 l0 605 ZM815 151 l-606 0 l0 -186 q1 -20 14 -33 q13 -13 33 -13 l512 0 q20 0 33 13 q13 13 14 33 l0 186 ZM512 -35 q-30 1 -49.5 20.5 q-19.5 19.5 -19.5 49.5 q0 30 19.5 49.5 q19.5 19.5 49.5 19.5 q30 0 49.5 -19.5 q19.5 -19.5 19.5 -49.5 q0 -30 -19.5 -49.5 q-19.5 -19.5 -49.5 -20.5 Z" /><glyph glyph-name="gouwuche2" unicode="&#xe62d;" d="M831 107 q-36 -1 -60 -25 q-24 -24 -24 -60 q0 -36 24 -60 q24 -24 60.5 -24 q36.5 0 60.5 24 q24 24 24 60 q0 36 -24 60 q-24 24 -61 25 ZM831 -21 q-18 1 -30 13 q-12 12 -12 30 q0 18 12 30 q12 12 30.5 12 q18.5 0 30.5 -12 q12 -12 12 -30 q0 -18 -12.5 -30 q-12.5 -12 -30.5 -13 ZM384 107 q-36 -1 -60 -25 q-24 -24 -24 -60 q0 -36 24 -60 q24 -24 60 -24 q36 0 60.5 24 q24.5 24 24.5 60 q0 36 -24.5 60 q-24.5 24 -60.5 25 ZM384 -21 q-18 1 -30 13 q-12 12 -12 30 q0 18 12 30 q12 12 30 12 q18 0 30 -12 q12 -12 12 -30 q0 -18 -12 -30 q-12 -12 -30 -13 ZM953 339 q3 17 24 139 l25 140 q-1 36 -25 60 q-24 24 -60 25 l-716 0 l-12 67 q-9 27 -30.5 44 q-21.5 17 -51.5 17 l-63 0 q-10 0 -16 -6 q-6 -6 -6 -15 q0 -9 6.5 -15 q6.5 -6 15.5 -6 l63 0 q16 -1 27.5 -10 q11.5 -9 14.5 -24 l96 -543 q8 -26 28 -43 q20 -17 47 -19 l597 0 q9 0 15 6 q6 6 6 15 q0 9 -6 15 q-6 6 -15 6 l-590 0 q-15 1 -26 9.5 q-11 8.5 -15 21.5 l-10 55 l596 0 q29 0 51 17 q22 17 30 44 ZM269 320 l-60 341 l708 0 q18 -1 30 -13 q12 -12 12 -30 q-3 -22 -23 -137 l-24 -131 q-4 -13 -15 -21.5 q-11 -8.5 -25 -8.5 l-603 0 Z" /><glyph glyph-name="zhuantifuwu" unicode="&#xe630;" d="M698 -35 l-42 0 q-8 0 -14 6 q-6 6 -6 14.5 q0 8.5 6 14.5 q6 6 14 6 l42 0 q8 0 33.5 19 q25.5 19 63.5 57.5 q38 38.5 57 64.5 q19 26 20 34 l0 396 q-1 52 -36 87 q-35 35 -87 36 l-474 0 q-52 -1 -87 -36 q-35 -35 -36 -87 l0 -448 q1 -52 36 -87 q35 -35 87 -36 l202 0 q9 -1 14.5 -6.5 q5.5 -5.5 5.5 -14.5 q0 -9 -5.5 -14.5 q-5.5 -5.5 -14.5 -5.5 l-202 0 q-69 1 -115.5 47.5 q-46.5 46.5 -48.5 116.5 l0 448 q2 70 48.5 116.5 q46.5 46.5 115.5 47.5 l474 0 q69 -1 115.5 -47.5 q46.5 -46.5 48.5 -116.5 l0 -397 q-3 -27 -34 -65.5 q-31 -38.5 -54 -60.5 q-26 -27 -63 -56.5 q-37 -29.5 -64 -32.5 ZM132 510 l754 0 l0 -40 l-754 0 l0 40 ZM263 622 q-9 0 -15 6 q-6 6 -6 15 l0 129 q0 9 6 14.5 q6 5.5 14.5 5.5 q8.5 0 14.5 -5.5 q6 -5.5 6 -14.5 l0 -129 q0 -9 -6 -15 q-6 -6 -14 -6 ZM757 622 q-8 0 -14 6 q-6 6 -6 15 l0 129 q0 9 6 14.5 q6 5.5 14.5 5.5 q8.5 0 14.5 -5.5 q6 -5.5 6 -14.5 l0 -129 q0 -9 -6 -15 q-6 -6 -15 -6 ZM653 -31 q-8 1 -14 6.5 q-6 5.5 -6 14.5 l0 104 q1 63 43 104.5 q42 41.5 104 43.5 l92 0 q9 -1 14.5 -6.5 q5.5 -5.5 5.5 -14 q0 -8.5 -5.5 -14.5 q-5.5 -6 -14.5 -6 l-92 0 q-45 -1 -75 -31 q-30 -30 -31 -76 l0 -104 q0 -9 -6 -14.5 q-6 -5.5 -15 -6.5 Z" /><glyph glyph-name="shouji2" unicode="&#xe62e;" d="M511 29 q-24 1 -40.5 17 q-16.5 16 -16.5 39.5 q0 23.5 16.5 39.5 q16.5 16 40.5 16 q24 0 40.5 -16 q16.5 -16 16.5 -39.5 q0 -23.5 -16.5 -39.5 q-16.5 -16 -40.5 -17 ZM211 757 q1 32 22 53 q21 21 53 22 l452 0 q32 -1 53 -22 q21 -21 22 -53 l0 -746 q-1 -32 -22 -53 q-21 -21 -53 -22 l-452 0 q-32 1 -53 22 q-21 21 -22 53 l0 746 ZM757 169 l-490 0 l0 -158 q0 -8 5.5 -13.5 q5.5 -5.5 13.5 -5.5 l452 0 q8 0 13.5 5.5 q5.5 5.5 5.5 13.5 l0 158 ZM757 225 l0 532 q0 8 -5.5 13.5 q-5.5 5.5 -13.5 5.5 l-452 0 q-8 0 -13.5 -5.5 q-5.5 -5.5 -5.5 -13.5 l0 -532 l490 0 Z" /><glyph glyph-name="shoppingbag" unicode="&#xe6f5;" d="M789 -64 l-554 0 q-36 1 -60.5 25 q-24.5 24 -25.5 60 l0 534 q1 18 13 30 q12 12 30 12 l107 0 l0 43 l2 0 q10 83 68.5 136.5 q58.5 53.5 142.5 55.5 q84 -2 142.5 -55.5 q58.5 -53.5 68.5 -136.5 l2 0 l0 -43 l107 0 q18 0 30 -12 q12 -12 13 -30 l0 -534 q-1 -36 -25.5 -60 q-24.5 -24 -60.5 -25 ZM683 619 q-2 72 -50.5 120 q-48.5 48 -120.5 50 q-72 -2 -120.5 -50 q-48.5 -48 -50.5 -120 l0 -22 l342 0 l0 22 ZM832 256 l0 299 l-107 0 l0 -107 q0 -10 -5.5 -15.5 q-5.5 -5.5 -15.5 -5.5 q-10 0 -15.5 5.5 q-5.5 5.5 -5.5 15.5 l0 107 l-342 0 l0 -107 q0 -10 -5.5 -15.5 q-5.5 -5.5 -15.5 -5.5 q-10 0 -15.5 5.5 q-5.5 5.5 -5.5 15.5 l0 107 l-107 0 l0 -534 q0 -18 12.5 -30 q12.5 -12 30.5 -12 l554 0 q18 0 30.5 12 q12.5 12 12.5 30 l0 235 Z" /><glyph glyph-name="phone" unicode="&#xe602;" d="M230 845 l0 -922 l0 0 q1 -11 8 -18 q7 -7 18 -7 l512 0 q11 0 18 7 q7 7 8 18 l0 922 q-1 11 -8 18 q-7 7 -18 7 l-512 0 q-11 0 -18 -7 q-7 -7 -8 -18 ZM205 845 q0 22 14.5 36 q14.5 14 36.5 15 l512 0 q22 -1 36.5 -15 q14.5 -14 14.5 -36 l0 -922 q0 -22 -14.5 -36 q-14.5 -14 -36.5 -15 l-512 0 q-22 1 -36.5 15 q-14.5 14 -14.5 36 l0 922 ZM205 115 l614 0 l0 -25 l-614 0 l0 25 ZM486 -6 q1 -11 8 -18.5 q7 -7.5 18 -7.5 q11 0 18 7.5 q7 7.5 8 18.5 q0 0 0 0 q0 0 0 0 q-1 10 -8 17.5 q-7 7.5 -18 7.5 q-11 0 -18 -7.5 q-7 -7.5 -8 -17.5 q0 0 0 0 Z" /><glyph glyph-name="kefu" unicode="&#xe625;" d="M55 343 l0 -111 q1 -36 24.5 -59 q23.5 -23 59 -23 q35.5 0 59 23 q23.5 23 23.5 59 l0 111 q0 35 -23.5 58.5 q-23.5 23.5 -59 23.5 q-35.5 0 -59 -23.5 q-23.5 -23.5 -24.5 -58.5 ZM818 131 q-21 20 -32 46 q-11 26 -11 55 l0 111 q1 58 40 97 q39 39 97 41 q-14 154 -121.5 255 q-107.5 101 -264.5 105 q-157 -4 -264.5 -105 q-107.5 -101 -122.5 -255 q59 -2 97.5 -41 q38.5 -39 40.5 -97 l0 -111 q-2 -59 -41 -98 q-39 -39 -98 -41 q-58 2 -97.5 41 q-39.5 39 -40.5 98 l0 111 q0 42 22.5 75.5 q22.5 33.5 60.5 50.5 q11 183 135 303 q124 120 308 124 q184 -4 308 -124 q124 -120 134 -303 q39 -17 61 -50.5 q22 -33.5 23 -75.5 l0 -111 q-1 -34 -16 -63.5 q-15 -29.5 -43 -49.5 q-28 -20 -61 -24.5 q-33 -4.5 -65 6.5 q-39 -41 -87 -71.5 q-48 -30.5 -102 -49.5 q-2 -40 -29.5 -66.5 q-27.5 -26.5 -67.5 -27.5 l-83 0 q-41 1 -68.5 28 q-27.5 27 -27.5 68.5 q0 41.5 27.5 69 q27.5 27.5 68.5 28.5 l83 0 q26 -1 47.5 -13 q21.5 -12 35.5 -33 q88 31 154 97 ZM830 343 l0 -111 q1 -36 24.5 -59 q23.5 -23 59 -23 q35.5 0 58.5 23 q23 23 24 59 l0 111 q-1 35 -24 58.5 q-23 23.5 -58.5 23.5 q-35.5 0 -59 -23.5 q-23.5 -23.5 -24.5 -58.5 ZM498 -59 l83 0 q18 1 29.5 12.5 q11.5 11.5 11.5 29 q0 17.5 -11.5 29.5 q-11.5 12 -29.5 12 l-83 0 q-17 0 -29 -12 q-12 -12 -12 -29.5 q0 -17.5 12 -29 q12 -11.5 29 -12.5 Z" /><glyph glyph-name="zanting" unicode="&#xe629;" d="M512 -128 q-218 5 -362.5 149.5 q-144.5 144.5 -149.5 362.5 q5 218 149.5 362.5 q144.5 144.5 362.5 149.5 q218 -5 362.5 -149.5 q144.5 -144.5 149.5 -362.5 q-5 -218 -149.5 -362.5 q-144.5 -144.5 -362.5 -149.5 ZM512 -85 q200 5 332 137 q132 132 137 332 q-5 200 -137 332 q-132 132 -332 137 q-200 -5 -332 -137 q-132 -132 -137 -332 q5 -200 137 -332 q132 -132 332 -137 ZM405 597 q10 0 16 -5.5 q6 -5.5 6 -15.5 l0 -384 q0 -10 -6 -15.5 q-6 -5.5 -15.5 -5.5 q-9.5 0 -15.5 5.5 q-6 5.5 -6 15.5 l0 384 q0 10 6 15.5 q6 5.5 15 5.5 ZM619 597 q9 0 15 -5.5 q6 -5.5 6 -15.5 l0 -384 q0 -10 -6 -15.5 q-6 -5.5 -15.5 -5.5 q-9.5 0 -15.5 5.5 q-6 5.5 -6 15.5 l0 384 q0 10 6 15.5 q6 5.5 16 5.5 Z" /><glyph glyph-name="pingjia" unicode="&#xe647;" d="M491 198 q-2 -2 -5 -3 l-177 -79 q-39 -13 -61 9 q-22 22 -10 61 l85 173 q2 2 3.5 4.5 q1.5 2.5 3.5 4.5 l423 422 q19 19 44.5 19 q25.5 0 45.5 -19 l75 -75 q19 -19 19 -45.5 q0 -26.5 -19 -45.5 l-422 -422 q-2 -3 -5 -4 ZM361 337 l-83 -166 q-8 -24 14 -15 l173 76 l-104 105 ZM496 262 l317 317 l-106 105 l-316 -316 l105 -106 ZM843 609 l45 45 q7 7 7 15.5 q0 8.5 -7 14.5 l-75 76 q-7 6 -15.5 6 q-8.5 0 -14.5 -6 l-46 -45 l106 -106 ZM896 442 q0 9 6 15 q6 6 15 6 q9 0 15 -6 q6 -6 7 -15 l0 -335 q0 -30 -11.5 -57.5 q-11.5 -27.5 -32.5 -48.5 q-21 -21 -48.5 -32.5 q-27.5 -11.5 -57.5 -11.5 l-554 0 q-30 0 -57.5 11.5 q-27.5 11.5 -48.5 32.5 q-21 21 -32.5 48.5 q-11.5 27.5 -11.5 57.5 l0 554 q0 30 11.5 57.5 q11.5 27.5 32.5 48.5 q21 21 48.5 32.5 q27.5 11.5 57.5 11.5 l338 0 q9 -1 15 -7 q6 -6 6 -15 q0 -9 -6 -15 q-6 -6 -15 -6 l-338 0 q-46 -1 -76 -31 q-30 -30 -31 -76 l0 -554 q0 -22 8 -41.5 q8 -19.5 23 -34.5 q15 -15 34.5 -23 q19.5 -8 41.5 -8 l554 0 q46 1 76 31 q30 30 31 76 l0 335 Z" /><glyph glyph-name="shouhuodizhiyebianji" unicode="&#xe650;" d="M896 399 q0 11 7.5 18 q7.5 7 18 7 q10.5 0 18 -7 q7.5 -7 7.5 -18 l0 -271 q0 -36 -13.5 -68.5 q-13.5 -32.5 -39 -58 q-25.5 -25.5 -58 -39 q-32.5 -13.5 -68.5 -13.5 l-512 0 q-36 0 -68.5 13.5 q-32.5 13.5 -58 39 q-25.5 25.5 -39 58 q-13.5 32.5 -13.5 68.5 l0 512 q0 36 13.5 68.5 q13.5 32.5 39 58 q25.5 25.5 58 39 q32.5 13.5 68.5 13.5 l313 0 q11 0 18 -7.5 q7 -7.5 7 -18 q0 -10.5 -7 -18 q-7 -7.5 -18 -7.5 l-313 0 q-54 -1 -90.5 -37.5 q-36.5 -36.5 -37.5 -90.5 l0 -512 q1 -54 37.5 -90.5 q36.5 -36.5 90.5 -37.5 l512 0 q54 1 90.5 37.5 q36.5 36.5 37.5 90.5 l0 271 ZM890 773 q10 10 24.5 7 q14.5 -3 18.5 -17 q4 -14 -5 -25 l-381 -409 q-7 -8 -17.5 -8 q-10.5 0 -18 7 q-7.5 7 -8 17.5 q-0.5 10.5 6.5 18.5 l380 409 Z" /><glyph glyph-name="huanyihuan" unicode="&#xe66a;" d="M839 522 q-44 100 -131 157.5 q-87 57.5 -196 58.5 q-151 -3 -251 -103 q-100 -100 -103 -251 q3 -151 103 -251 q100 -100 251 -103 q111 1 199.5 61.5 q88.5 60.5 130.5 163.5 q9 20 31 23.5 q22 3.5 36 -14 q14 -17.5 6 -38.5 q-51 -126 -159 -200 q-108 -74 -244 -75 q-184 4 -306.5 126.5 q-122.5 122.5 -126.5 306.5 q4 184 126.5 306.5 q122.5 122.5 306.5 126.5 q109 -1 201.5 -49.5 q92.5 -48.5 152.5 -134.5 l0 86 q1 17 12 28 q11 11 28 11 q17 0 28 -11 q11 -11 11 -28 l0 -237 q0 -16 -11.5 -27.5 q-11.5 -11.5 -27.5 -11.5 l-197 0 q-17 0 -28 11.5 q-11 11.5 -11 28 q0 16.5 11 27.5 q11 11 28 12 l130 0 Z" /></font>
</defs>
</svg>
